<?xml version="1.0" encoding="UTF-8"?>
<svg width="64px" height="111px" viewBox="0 0 64 111" version="1.1" xmlns="http://www.w3.org/2000/svg" xmlns:xlink="http://www.w3.org/1999/xlink">
    <title>Combined Shape</title>
    <g id="Page-1" stroke="none" stroke-width="1" fill="none" fill-rule="evenodd">
        <path d="M14.6695898,27.7241523 C23.3035898,28.5021523 31.6245898,31.4361523 39.3785898,35.2041523 C55.1265898,43.0871523 68.3385898,56.0561523 76.1645898,71.8621523 C78.5355898,76.6411523 79.9525898,81.8071523 81.4435898,86.9081523 C82.0495898,89.1341523 82.7005898,91.3661523 83.0045898,93.6651523 C83.2955898,95.0311523 82.0505898,96.1281523 80.8025898,96.3291523 C78.0185898,87.6591523 74.3975898,79.2091523 69.4795898,71.5271523 C60.4865898,57.7501523 47.6925898,46.5101523 32.9375898,39.2561523 C25.6915898,35.7771523 17.9665898,33.4481523 10.2865898,31.1581523 C9.50058979,30.9471523 8.81658979,30.4921523 8.18258979,30.0221523 C9.12458979,27.3491523 12.3815898,27.6121523 14.6695898,27.7241523 Z M7.65658979,18.2951523 C13.4505898,18.8721523 19.2255898,19.8941523 24.7765898,21.6631523 C24.5155898,23.4011523 22.7365898,24.2021523 21.1375898,23.9041523 C14.3155898,23.2981523 7.57058979,21.8181523 0.703589789,21.7081523 C-3.92541021,21.6271523 -8.67641021,21.7161523 -13.1064102,23.1811523 C-8.96541021,25.8311523 -4.41841021,27.7781523 -0.275410211,30.4481523 C4.85758979,33.6101523 9.52658979,37.4991523 13.6995898,41.8511523 C15.4785898,43.7141523 16.8925898,45.9141523 18.1045898,48.1791523 C18.2265898,49.6121523 16.9815898,50.6401523 15.9055898,51.3551523 C11.3065898,48.5501523 8.10058979,44.1251523 3.99058979,40.7261523 C-1.22941021,36.1811523 -7.09341021,32.4651523 -13.1014102,29.0641523 C-14.7844102,27.9141523 -17.3164102,26.5881523 -16.9674102,24.1791523 C-16.3244102,21.7771523 -14.0884102,20.1641523 -11.7514102,19.5911523 C-5.45841021,17.8411523 1.18358979,17.7501523 7.65658979,18.2951523 Z" id="Combined-Shape" fill="#010101" transform="translate(33.023672, 57.164576) scale(-1, -1) rotate(26.000000) translate(-33.023672, -57.164576) "></path>
    </g>
</svg>