<?xml version="1.0" encoding="UTF-8"?>
<svg width="1205px" height="16px" viewBox="0 0 1205 16" version="1.1" xmlns="http://www.w3.org/2000/svg" xmlns:xlink="http://www.w3.org/1999/xlink">
    <title>Path</title>
    <g id="Page-1" stroke="none" stroke-width="1" fill="none" fill-rule="evenodd">
        <path d="M339.436698,2.65086986 C343.909722,2.78137586 348.391315,3.05120531 352.858191,3.35399369 L357.319299,3.66382895 L357.319299,3.66382895 L363.570753,4.10476143 L363.570753,4.10476143 L376.066679,5.00258966 L376.066679,5.00258966 C382.266005,5.43536824 388.456351,5.81470918 394.656412,6.20943078 C401.066449,6.61888466 407.455731,7.0660798 413.855096,7.5096271 C425.744006,8.32907609 437.646603,8.95839804 449.571059,9.49289326 C455.393193,9.7560279 461.216063,9.98110555 467.061895,10.054271 C473.237962,10.1364517 479.404976,10.1690005 485.573461,10.1254354 C491.952291,10.077574 498.321037,10.0333605 504.689636,9.99675832 C510.897939,9.96524171 517.108154,9.83477695 523.298645,9.68877366 L528.349791,9.57769722 L528.349791,9.57769722 L543.519973,9.28415465 C548.577327,9.1811228 553.632635,9.0615771 558.677885,8.89152901 C570.690803,8.47570474 582.648079,7.83059137 594.625079,7.20101652 C600.428149,6.89662852 606.23085,6.61126901 612.043635,6.32226166 C616.509396,6.10337384 620.944446,5.81578273 625.373542,5.50470837 L628.694634,5.26770606 C634.048755,4.88010011 639.422673,4.50422698 644.795855,4.16641083 C650.990908,3.78445425 657.204435,3.48273307 663.428045,3.17736405 C665.362279,3.08224422 667.316163,3.0064686 669.259965,2.93434082 C681.35178,2.58067065 693.527939,2.52526573 705.720806,2.64143298 C718.494363,2.75914507 731.286099,2.97231535 744.086078,3.27698026 C765.202569,3.77816325 786.248634,5.04489455 807.271844,6.41480843 L819.883408,7.24383974 C831.542985,8.01398943 843.265636,8.62905269 854.990418,8.61601787 C859.968688,8.61078365 864.944156,8.58479592 869.918484,8.55148104 L884.83971,8.44298133 C887.326566,8.42570993 889.813552,8.40996333 892.300877,8.39741983 C905.128012,8.33324774 917.973548,8.35311675 930.819009,8.37679145 C936.836178,8.39174946 942.883079,8.42240386 948.892225,8.33445015 C952.177207,8.28728215 955.45746,8.22576386 958.736581,8.15804157 L968.574148,7.94440903 L968.574148,7.94440903 C974.333722,7.81825738 980.082992,7.70717066 985.85,7.71437631 C991.88726,7.72584435 997.901632,7.8854189 1003.92447,8.12507097 C1016.80084,8.62128372 1029.67553,9.20502753 1042.54167,9.71249951 C1048.54456,9.94803015 1054.52721,10.1946622 1060.54144,10.3618481 C1066.86595,10.5339279 1073.15183,10.633068 1079.45964,10.6335756 C1085.48703,10.6372744 1091.52731,10.4927088 1097.50864,10.2901105 L1104.34872,10.0535413 L1104.34872,10.0535413 L1118.01817,9.55908452 C1118.03819,9.55940026 1118.06822,9.55987386 1118.08823,9.56018959 C1117.56723,9.57862043 1117.0463,9.59324557 1116.52523,9.6154821 C1131.14308,9.11130933 1145.76925,8.69482549 1160.45128,8.49621365 L1170.66661,8.3580143 L1170.66661,8.3580143 L1180.88199,8.21696067 C1184.32727,8.16470714 1187.7724,8.12006501 1191.21753,8.07542288 L1192.90975,8.04994428 L1192.90975,8.04994428 L1196.28565,7.98024113 L1196.28565,7.98024113 C1197.60784,7.95160541 1198.92106,7.86953204 1200.2342,7.79126438 C1201.14197,7.74225346 1202.01992,7.66242516 1202.89808,7.5745117 C1202.93106,7.68028028 1202.94468,7.7876056 1202.94468,7.89587078 C1202.92712,8.89299643 1201.44335,9.74137263 1199.39552,9.95272834 L1197.68504,10.1279836 C1196.83352,10.2132334 1195.98143,10.2902515 1195.1012,10.3380461 C1193.79369,10.4164119 1192.4861,10.4985835 1191.16957,10.5273181 L1187.80814,10.5972738 C1187.24669,10.6075981 1186.68491,10.6165071 1186.12317,10.622879 C1182.69281,10.6677788 1179.26244,10.7126787 1175.83193,10.76519 C1169.05085,10.8600523 1162.26978,10.9549147 1155.48878,11.0459714 C1140.86968,11.2456816 1126.30618,11.6632594 1111.75096,12.1685253 C1112.2698,12.1462498 1112.78849,12.1315857 1113.30726,12.1131159 L1113.2375,12.1120161 L1113.2375,12.1120161 C1106.43348,12.3625979 1099.62946,12.6131797 1092.81583,12.8445759 C1086.86014,13.0476215 1080.84574,13.1926388 1074.84418,13.1894446 C1068.56342,13.1894446 1062.3045,13.0906859 1056.00711,12.9190796 C1050.01868,12.7523439 1044.06169,12.5061599 1038.08455,12.2710788 L1028.47486,11.8794559 L1028.47486,11.8794559 L1009.24845,11.0718311 C1006.04348,10.939637 1002.83831,10.8103541 999.633021,10.686542 C993.636023,10.4473409 987.647446,10.2882166 981.636068,10.2772004 C975.893784,10.2704263 970.169152,10.3819431 964.43426,10.5085255 C957.901465,10.6529842 951.378489,10.8052114 944.836684,10.9000389 C938.853293,10.9884422 932.832316,10.9582403 926.840944,10.9437326 C914.050552,10.9210191 901.260087,10.9021114 888.487936,10.9672432 L881.058752,11.013363 L881.058752,11.013363 L866.201484,11.1229791 C861.248478,11.1566661 856.294338,11.1830261 851.337409,11.1886329 C839.66289,11.202545 827.99054,10.5883598 816.381005,9.81908356 L803.823568,8.99099705 C782.890586,7.62265811 761.93484,6.35750333 740.908912,5.85790112 C728.163829,5.55419443 715.426947,5.34198162 702.708159,5.22522552 C690.567571,5.10997081 678.443606,5.16628678 666.403602,5.52086131 C664.468128,5.59313445 662.522614,5.66905618 660.596665,5.76432063 L653.165675,6.13493898 C649.453125,6.32474097 645.745391,6.52530856 642.044276,6.75476035 C638.031647,7.00842368 634.018603,7.28349407 630.013772,7.56886537 L626.011999,7.85725898 C620.501112,8.25765976 614.990594,8.63903205 609.432302,8.91305918 L597.866831,9.49379741 C595.940456,9.59201603 594.014425,9.69150904 592.088354,9.79311632 L581.869382,10.3316143 C573.354665,10.7740165 564.83903,11.1886575 556.295138,11.4863165 C544.573324,11.8839758 532.797008,12.006682 521.067508,12.2862075 C514.903544,12.4326738 508.719942,12.5636031 502.538252,12.5955843 C496.196952,12.6326629 489.855505,12.677353 483.504018,12.7256916 C477.361973,12.7697183 471.221399,12.737631 465.071815,12.6559125 C459.251049,12.5831846 453.453159,12.358543 447.656004,12.0958443 C435.782708,11.5622421 423.931183,10.9338117 412.093302,10.1152534 C405.721404,9.67218551 399.359546,9.22546907 392.977019,8.81649538 C386.803567,8.42223824 380.639787,8.04336102 374.467071,7.61104689 L362.024782,6.7141549 L362.024782,6.7141549 L355.80016,6.27369078 C349.88635,5.8568788 343.932748,5.43563265 337.994297,5.26207116 C328.227238,4.97676047 318.46506,5.01915449 308.721511,5.11323476 L298.984681,5.21432089 L288.781447,5.31453459 C280.279668,5.39576671 271.778969,5.45870299 263.270277,5.40886133 C257.129777,5.37296835 250.99939,5.32962109 244.867826,5.34716501 C239.523905,5.36189839 234.188038,5.47573705 228.851362,5.6314384 C219.672387,5.99685427 210.579211,6.56538622 201.456062,7.13725252 C192.382967,7.69848732 183.309871,8.25972211 174.189076,8.70980605 C164.489345,9.19644558 154.742356,9.54910007 144.940203,9.66105283 C142.48721,9.68709889 140.044477,9.69807927 137.582694,9.66307704 C135.459623,9.64102818 133.308786,9.50814271 131.198182,9.35685721 C128.293674,9.14547039 125.401289,8.8871648 122.507606,8.62348535 L119.71251,8.36873588 C113.412068,7.83923677 107.088531,7.47306847 100.744326,7.14464292 C94.3902275,6.81225455 88.038115,6.37711232 81.6934682,6.07152097 C78.1575171,5.90537911 74.6409839,5.76619139 71.0839231,5.66062648 C67.5766209,5.55965286 64.0377277,5.54573896 60.5386266,5.53625923 C54.108732,5.51483835 47.7156875,5.65007958 41.3509241,5.86951754 L41.5815542,5.86506377 L41.5815542,5.86506377 L41.8197143,5.85787355 C37.1656286,6.03004598 32.5226724,6.20667657 27.8777045,6.41486047 L18.7103189,6.84957732 C14.1796024,7.07026914 9.63968021,7.33203698 5.26301827,7.85120013 C4.79327193,7.91231821 4.27538511,7.88511962 3.79957058,7.74437854 C2.95705744,7.49126456 2.7079332,6.96960448 3.1838579,6.58880771 C3.56182226,6.29021751 4.36181755,6.1640903 5.13727339,6.08495048 L6.22623126,5.98579683 L6.22623126,5.98579683 L10.6109105,5.56764181 L10.6109105,5.56764181 C13.2476391,5.31988763 15.8938928,5.09512476 18.5697516,4.88605603 C23.8814563,4.47490151 29.2018035,4.13240668 34.5898564,3.89757124 C40.0777942,3.65288988 45.5652907,3.43104271 51.0907406,3.30877217 C56.795807,3.17791265 62.5676963,3.2003809 68.2983224,3.29452895 C75.2049209,3.41067656 82.0910863,3.74849537 88.9786259,4.11016089 L94.8830765,4.42138593 C96.8516779,4.52399829 98.8209002,4.62394334 100.791252,4.71660709 C105.337981,4.93324295 109.884711,5.14987882 114.429929,5.30053226 C115.717121,5.38924595 117.003247,5.48379403 118.288381,5.5847716 L120.191683,5.73801057 L123.022497,5.99609431 C125.928659,6.25999157 128.833516,6.51851486 131.750545,6.73012024 C133.870247,6.88156456 136.030355,7.01461184 138.162569,7.03682028 C140.634953,7.07200757 143.088202,7.06121074 145.551754,7.03534899 C155.396102,6.92413273 165.185029,6.57221028 174.926484,6.08629906 C184.086515,5.63689997 193.198632,5.0763463 202.310749,4.51579263 C211.473134,3.9446112 220.605417,3.37676186 229.823884,3.01203534 C235.183525,2.85673484 240.542357,2.74329702 245.909284,2.72896523 C252.067246,2.71188208 258.22403,2.75569011 264.39097,2.79204461 C272.9363,2.84252577 281.473593,2.78022825 290.01197,2.69963494 L300.259125,2.6001879 L300.259125,2.6001879 L310.037869,2.49983338 C319.823361,2.40648522 329.627566,2.36482479 339.436698,2.65086986 Z" id="Path" stroke="#000000" stroke-width="4" fill="#000000" fill-rule="nonzero"></path>
    </g>
</svg>