<?xml version="1.0" encoding="UTF-8"?>
<svg width="1186px" height="20px" viewBox="0 0 1186 20" version="1.1" xmlns="http://www.w3.org/2000/svg" xmlns:xlink="http://www.w3.org/1999/xlink">
    <title>divider-red</title>
    <defs>
        <rect id="path-1" x="1.70000476e-08" y="0" width="1186" height="20"></rect>
    </defs>
    <g id="Page-1" stroke="none" stroke-width="1" fill="none" fill-rule="evenodd">
        <g id="divider-red">
            <mask id="mask-2" fill="white">
                <use xlink:href="#path-1"></use>
            </mask>
            <g id="path-1"></g>
            <g id="Group" mask="url(#mask-2)">
                <g transform="translate(-7.055317, 0.430011)">
                    <path d="M302.776828,1.68322419 C312.520377,1.58914391 322.282555,1.54674989 332.049614,1.83206058 C337.245758,1.98392689 342.453503,2.32542676 347.63604,2.68766028 L356.080099,3.28414432 L368.522388,4.18103632 C374.695104,4.61335044 380.858884,4.99222767 387.032336,5.3864848 C393.414863,5.79545849 399.776721,6.24217494 406.148619,6.6852428 C417.9865,7.50380109 429.838025,8.13223155 441.711321,8.66583378 C447.508476,8.9285324 453.306366,9.15317404 459.127132,9.22590196 C465.276716,9.30762044 471.41729,9.33970772 477.559335,9.29568103 C483.910822,9.2473424 490.252269,9.20265235 496.593569,9.16557369 C502.775259,9.13359256 508.958861,9.00266327 515.122825,8.85619694 C526.852325,8.57667145 538.628641,8.4539652 550.350455,8.05630593 C557.470365,7.80825673 564.570652,7.47897007 571.667138,7.1200783 L575.9247,6.90160368 L589.032796,6.21217554 L589.032796,6.21217554 L591.922148,6.06378684 L603.487619,5.48304861 C607.934252,5.2638269 612.350311,4.9759043 616.760443,4.66449892 L624.069089,4.1388548 C628.07392,3.85348349 632.086964,3.57841311 636.099593,3.32474978 C638.567003,3.17178191 641.037355,3.03165148 643.510114,2.89898999 L647.220992,2.70492841 L654.651982,2.33431006 C656.577931,2.23904561 658.523445,2.16312388 660.458919,2.09085074 C672.498923,1.73627621 684.622888,1.67996024 696.763476,1.79521494 C709.482264,1.91197105 722.219146,2.12418385 734.964229,2.42789055 C754.588429,2.89418594 774.151492,4.02736269 793.691971,5.28889074 L797.878885,5.56098648 L810.436322,6.38907299 C822.045857,7.1583492 833.718207,7.77253445 845.392726,7.75862229 C848.697346,7.75488447 852.000725,7.74192298 855.303356,7.72371594 L860.256801,7.6929685 L875.114069,7.58335238 L882.543253,7.53723263 C895.315404,7.47210078 908.105869,7.49100854 920.896261,7.51372199 C926.887633,7.52822972 932.90861,7.5584316 938.892001,7.47002834 C945.433806,7.37520085 951.956782,7.22297364 958.489577,7.07851495 C964.224469,6.95193248 969.949101,6.84041569 975.691385,6.84718979 C981.702763,6.85820605 987.69134,7.01733034 993.688338,7.25653141 L998.496172,7.44603272 L998.496172,7.44603272 L1003.30377,7.64182051 L1022.53017,8.44944535 L1032.13987,8.84106818 C1038.11701,9.07614932 1044.074,9.32233333 1050.06243,9.48906901 C1056.35981,9.66067532 1062.61874,9.75934489 1068.8995,9.75938052 C1074.90106,9.76262827 1080.91545,9.61761089 1086.87115,9.41456532 C1091.41357,9.26030119 1095.95171,9.09751013 1100.48844,8.93187676 L1107.29282,8.68200555 L1107.36258,8.68310537 C1106.84381,8.70157517 1106.32512,8.71623927 1105.80627,8.73851477 C1120.3615,8.23324882 1134.92499,7.81567105 1149.5441,7.61596083 C1156.3251,7.52490415 1163.10617,7.43004177 1169.88724,7.33517939 L1175.03292,7.26116961 L1175.03292,7.26116961 L1181.02108,7.18154796 L1181.02108,7.18154796 L1181.86345,7.16726319 L1185.22489,7.09730751 C1186.54141,7.06857289 1187.849,6.98640137 1189.15652,6.90803555 C1189.74334,6.87617249 1190.31765,6.83132117 1190.88762,6.77970144 L1191.74036,6.697973 L1193.45084,6.52271777 C1193.65887,6.50124683 1193.86108,6.47320192 1194.05652,6.43909493 L1194.05652,19.5699894 L0.053766498,19.5699894 L0.053766498,4.336505 C3.6839148,3.93084232 7.41889703,3.69258084 11.1614866,3.49977188 L12.7656359,3.41956674 L21.9330215,2.9848499 C25.0296668,2.84606063 28.125418,2.72129506 31.2241687,2.60252498 L35.6368712,2.43505319 L35.4062411,2.43950697 C41.7710045,2.22006901 48.164049,2.08482777 54.5939437,2.10624866 C58.0930447,2.11572839 61.6319379,2.12964229 65.1392401,2.23061591 C68.696301,2.33618082 72.2128341,2.47536854 75.7487852,2.64151039 C82.093432,2.94710175 88.4455445,3.38224398 94.7996428,3.71463235 C100.237533,3.99613996 105.660239,4.30537694 111.066231,4.72143082 L113.767827,4.93872531 L116.562923,5.19347478 C119.456606,5.45715423 122.348991,5.71545982 125.253499,5.92684664 C127.364103,6.07813214 129.51494,6.21101761 131.638011,6.23306646 C134.099794,6.2680687 136.542527,6.25708832 138.99552,6.23104226 C148.797673,6.11908949 158.544662,5.76643501 168.244393,5.27979547 C177.365188,4.82971153 186.438284,4.26847674 195.511379,3.70724195 C204.634528,3.13537565 213.727704,2.5668437 222.906679,2.20142783 C228.243355,2.04572648 233.579222,1.93188782 238.923143,1.91715444 C245.054707,1.89961052 251.185094,1.94295778 257.325594,1.97885076 C264.132548,2.01872409 270.934386,1.98641954 277.735754,1.93031193 L282.836764,1.88452402 L293.039998,1.78431032 L302.776828,1.68322419 Z" id="Shape" fill="#FFCA0E" fill-rule="evenodd"></path>
                    <path d="M336.492015,0.220859289 C340.965039,0.351365292 345.446632,0.621194737 349.913508,0.923983115 L354.374616,1.23381838 L354.374616,1.23381838 L360.62607,1.67475086 L360.62607,1.67475086 L373.121996,2.57257909 L373.121996,2.57257909 C379.321322,3.00535767 385.511668,3.38469861 391.711729,3.77942021 C398.121766,4.18887409 404.511048,4.63606923 410.910413,5.07961653 C422.799323,5.89906552 434.70192,6.52838747 446.626377,7.06288269 C452.44851,7.32601732 458.27138,7.55109498 464.117212,7.62426043 C470.293279,7.70644117 476.460293,7.73898997 482.628778,7.6954248 C489.007608,7.64756343 495.376354,7.60334989 501.744953,7.56674775 C507.953256,7.53523114 514.163471,7.40476638 520.353962,7.25876309 L525.405108,7.14768665 L525.405108,7.14768665 L540.57529,6.85414408 C545.632644,6.75111223 550.687952,6.63156653 555.733202,6.46151844 C567.74612,6.04569416 579.703396,5.40058079 591.680396,4.77100595 C597.483466,4.46661795 603.286167,4.18125843 609.098952,3.89225109 C613.564713,3.67336326 617.999763,3.38577215 622.428859,3.0746978 L625.749951,2.83769549 C631.104072,2.45008953 636.47799,2.0742164 641.851172,1.73640026 C648.046225,1.35444368 654.259752,1.0527225 660.483362,0.747353481 C662.417596,0.652233643 664.37148,0.576458029 666.315282,0.504330247 C678.407097,0.150660074 690.583256,0.095255162 702.776123,0.211422404 C715.54968,0.329134497 728.341416,0.542304779 741.141395,0.846969686 C762.257886,1.34815268 783.303951,2.61488398 804.327161,3.98479786 L816.938725,4.81382917 C828.598303,5.58397886 840.320953,6.19904211 852.045735,6.18600729 C857.024005,6.18077308 861.999473,6.15478535 866.973801,6.12147047 L881.895027,6.01297076 C884.381883,5.99569935 886.868869,5.97995276 889.356194,5.96740926 C902.183329,5.90323717 915.028865,5.92310617 927.874326,5.94678087 C933.891495,5.96173888 939.938396,5.99239328 945.947542,5.90443957 C949.232524,5.85727158 952.512777,5.79575329 955.791898,5.728031 L965.629465,5.51439846 L965.629465,5.51439846 C971.389039,5.38824681 977.138309,5.27716008 982.905317,5.28436574 C988.942577,5.29583378 994.956949,5.45540832 1000.97978,5.6950604 C1013.85616,6.19127315 1026.73084,6.77501696 1039.59699,7.28248893 C1045.59988,7.51801958 1051.58253,7.76465158 1057.59675,7.93183752 C1063.92127,8.10391731 1070.20714,8.20305738 1076.51495,8.20356502 C1082.54235,8.2072638 1088.58263,8.06269822 1094.56395,7.86009996 L1101.40403,7.62353068 L1101.40403,7.62353068 L1115.07349,7.12907395 C1115.0935,7.12938968 1115.12353,7.12986328 1115.14355,7.13017902 C1114.62255,7.14860985 1114.10162,7.16323499 1113.58055,7.18547153 C1128.1984,6.68129876 1142.82457,6.26481492 1157.5066,6.06620308 L1167.72193,5.92800372 L1167.72193,5.92800372 L1177.93731,5.7869501 C1181.38259,5.73469657 1184.82772,5.69005444 1188.27285,5.6454123 L1189.96507,5.61993371 L1189.96507,5.61993371 L1193.34097,5.55023055 L1193.34097,5.55023055 C1194.66316,5.52159483 1195.97637,5.43952147 1197.28951,5.36125381 C1198.19728,5.31224288 1199.07524,5.23241458 1199.95339,5.14450112 C1199.98637,5.25026971 1200,5.35759503 1200,5.46586021 C1199.98244,6.46298585 1198.49866,7.31136206 1196.45084,7.52271777 L1194.74036,7.697973 C1193.88883,7.78322279 1193.03675,7.86024096 1192.15652,7.90803555 C1190.849,7.98640137 1189.54141,8.06857289 1188.22489,8.09730751 L1184.86345,8.16726319 C1184.30201,8.17758753 1183.74023,8.18649652 1183.17849,8.19286838 C1179.74812,8.23776825 1176.31776,8.28266812 1172.88724,8.33517939 C1166.10617,8.43004177 1159.3251,8.52490415 1152.5441,8.61596083 C1137.92499,8.81567105 1123.3615,9.23324882 1108.80627,9.73851477 C1109.32512,9.71623927 1109.84381,9.70157517 1110.36258,9.68310537 L1110.29282,9.68200555 L1110.29282,9.68200555 C1103.48879,9.93258734 1096.68477,10.1831691 1089.87115,10.4145653 C1083.91545,10.6176109 1077.90106,10.7626283 1071.8995,10.7594857 C1065.61874,10.7594857 1059.35981,10.6606753 1053.06243,10.489069 C1047.074,10.3223333 1041.11701,10.0761493 1035.13987,9.84106818 L1025.53017,9.44944535 L1025.53017,9.44944535 L1006.30377,8.64182051 C1003.0988,8.50962639 999.893622,8.38034356 996.688338,8.25653141 C990.69134,8.01733034 984.702763,7.85820605 978.691385,7.84718979 C972.949101,7.84041569 967.224469,7.95193248 961.489577,8.07851495 C954.956782,8.22297364 948.433806,8.37520085 941.892001,8.47002834 C935.90861,8.5584316 929.887633,8.52822972 923.896261,8.51372199 C911.105869,8.49100854 898.315404,8.47210078 885.543253,8.53723263 L878.114069,8.58335238 L878.114069,8.58335238 L863.256801,8.6929685 C858.303795,8.72665556 853.349655,8.75301556 848.392726,8.75862229 C836.718207,8.77253445 825.045857,8.1583492 813.436322,7.38907299 L800.878885,6.56098648 C779.945903,5.19264754 758.990157,3.92749276 737.964229,3.42789055 C725.219146,3.12418385 712.482264,2.91197105 699.763476,2.79521494 C687.622888,2.67996024 675.498923,2.73627621 663.458919,3.09085074 C661.523445,3.16312388 659.577931,3.23904561 657.651982,3.33431006 L650.220992,3.70492841 C646.508442,3.8947304 642.800708,4.09529798 639.099593,4.32474978 C635.086964,4.57841311 631.07392,4.85348349 627.069089,5.1388548 L623.067316,5.42724841 C617.556429,5.82764919 612.045911,6.20902148 606.487619,6.48304861 L594.922148,7.06378684 C592.995773,7.16200546 591.069742,7.26149846 589.143671,7.36310575 L578.9247,7.90160368 C570.409982,8.3440059 561.894347,8.75864689 553.350455,9.05630593 C541.628641,9.4539652 529.852325,9.57667145 518.122825,9.85619694 C511.958861,10.0026633 505.775259,10.1335926 499.593569,10.1655737 C493.252269,10.2026523 486.910822,10.2473424 480.559335,10.295681 C474.41729,10.3397077 468.276716,10.3076204 462.127132,10.225902 C456.306366,10.153174 450.508476,9.9285324 444.711321,9.66583378 C432.838025,9.13223155 420.9865,8.50380109 409.148619,7.6852428 C402.776721,7.24217494 396.414863,6.79545849 390.032336,6.3864848 C383.858884,5.99222767 377.695104,5.61335044 371.522388,5.18103632 L359.080099,4.28414432 L359.080099,4.28414432 L352.855477,3.84368021 C346.941667,3.42686823 340.988065,3.00562208 335.049614,2.83206058 C325.282555,2.54674989 315.520377,2.58914391 305.776828,2.68322419 L296.039998,2.78431032 L285.836764,2.88452402 C277.334985,2.96575614 268.834286,3.02869242 260.325594,2.97885076 C254.185094,2.94295778 248.054707,2.89961052 241.923143,2.91715444 C236.579222,2.93188782 231.243355,3.04572648 225.906679,3.20142783 C216.727704,3.5668437 207.634528,4.13537565 198.511379,4.70724195 C189.438284,5.26847674 180.365188,5.82971153 171.244393,6.27979547 C161.544662,6.76643501 151.797673,7.11908949 141.99552,7.23104226 C139.542527,7.25708832 137.099794,7.2680687 134.638011,7.23306646 C132.51494,7.21101761 130.364103,7.07813214 128.253499,6.92684664 C125.348991,6.71545982 122.456606,6.45715423 119.562923,6.19347478 L116.767827,5.93872531 C110.467385,5.4092262 104.143848,5.04305789 97.7996428,4.71463235 C91.4455445,4.38224398 85.093432,3.94710175 78.7487852,3.64151039 C75.2128341,3.47536854 71.696301,3.33618082 68.1392401,3.23061591 C64.6319379,3.12964229 61.0930447,3.11572839 57.5939437,3.10624866 C51.164049,3.08482777 44.7710045,3.22006901 38.4062411,3.43950697 L38.6368712,3.43505319 L38.6368712,3.43505319 L38.8750313,3.42786298 C34.2209456,3.6000354 29.5779895,3.776666 24.9330215,3.9848499 L15.7656359,4.41956674 C11.2349194,4.64025857 6.69499723,4.90202641 2.31833529,5.42118956 C1.84858895,5.48230763 1.33070213,5.45510905 0.854887601,5.31436797 C0.0123744601,5.06125399 -0.236749778,4.53959391 0.239174918,4.15879713 C0.617139275,3.86020694 1.41713457,3.73407973 2.19259041,3.65493991 L3.28154828,3.55578625 L3.28154828,3.55578625 L7.66622753,3.13763124 L7.66622753,3.13763124 C10.3029561,2.88987705 12.9492098,2.66511418 15.6250686,2.45604546 C20.9367733,2.04489094 26.2571206,1.70239611 31.6451734,1.46756067 C37.1331112,1.22287931 42.6206077,1.00103213 48.1460576,0.878761598 C53.851124,0.747902076 59.6230133,0.770370324 65.3536394,0.864518382 C72.2602379,0.980665988 79.1464033,1.3184848 86.0339429,1.68015031 L91.9383935,1.99137535 C93.906995,2.09398772 95.8762172,2.19393277 97.8465689,2.28659652 C102.393298,2.50323238 106.940028,2.71986825 111.485246,2.87052169 C112.772438,2.95923538 114.058564,3.05378345 115.343698,3.15476102 L117.247,3.308 L120.077814,3.56608374 C122.983976,3.829981 125.888833,4.08850429 128.805862,4.30010967 C130.925564,4.45155398 133.085672,4.58460127 135.217886,4.6068097 C137.69027,4.64199699 140.143519,4.63120017 142.607071,4.60533842 C152.451419,4.49412216 162.240346,4.14219971 171.981801,3.65628849 C181.141832,3.2068894 190.253949,2.64633573 199.366066,2.08578206 C208.528451,1.51460063 217.660734,0.946751292 226.879201,0.582024763 C232.238842,0.426724267 237.597674,0.313286452 242.964601,0.298954658 C249.122563,0.281871512 255.279347,0.325679537 261.446287,0.362034033 C269.991617,0.412515201 278.52891,0.35021768 287.067287,0.26962437 L297.314443,0.170177325 L297.314443,0.170177325 L307.093186,0.0698228057 C316.878678,-0.0235253522 326.682883,-0.0651857844 336.492015,0.220859289 Z" id="Path-Copy" fill="#000000" fill-rule="nonzero"></path>
                </g>
            </g>
        </g>
    </g>
</svg>