<?xml version="1.0" encoding="UTF-8"?>
<svg width="122px" height="83px" viewBox="0 0 122 83" version="1.1" xmlns="http://www.w3.org/2000/svg" xmlns:xlink="http://www.w3.org/1999/xlink">
    <title>Group</title>
    <g id="Page-1" stroke="none" stroke-width="1" fill="none" fill-rule="evenodd">
        <g id="Group" transform="translate(1.253700, 2.000000)" fill="#000000" stroke="#000000" stroke-width="3">
            <path d="M29.9157303,33.7949047 C30.2567303,28.5899047 31.3087303,23.5969047 31.3107303,18.3399047 C31.3147303,12.3409047 31.3037303,6.34290474 31.3037303,0.344904744 C31.3037303,-0.345095256 29.0617303,0.0749047436 29.0617303,0.944904744 C29.0617303,6.48390474 29.0607303,12.0229047 29.0667303,17.5619047 C29.0717303,23.1949047 28.0397303,28.5009047 27.6747303,34.0759047 C27.6157303,34.9829047 29.8667303,34.5469047 29.9157303,33.7949047" id="Fill-10" transform="translate(29.492598, 17.292700) rotate(-12.000000) translate(-29.492598, -17.292700) "></path>
            <path d="M69.4487303,36.4099047 C69.2647303,32.7829047 73.5967303,27.5349047 75.2857303,24.4289047 C76.8987303,21.4629047 78.4917303,18.4909047 80.0357303,15.4879047 C81.2367303,13.1519047 82.1837303,9.89790474 83.7797303,7.82790474 C83.0577303,7.91990474 82.3367303,8.01190474 81.6147303,8.10390474 C81.6667303,8.26090474 81.7197303,8.41790474 81.7717303,8.57490474 C82.0317303,9.35590474 84.2627303,8.72290474 84.0137303,7.97390474 C83.9607303,7.81690474 83.9087303,7.66090474 83.8567303,7.50390474 C83.5907303,6.70590474 82.0137303,7.36390474 81.6917303,7.77990474 C79.9087303,10.0949047 79.0027303,13.3899047 77.6497303,16.0189047 C75.7517303,19.7069047 73.7937303,23.3669047 71.7887303,26.9969047 C70.1697303,29.9299047 67.0287303,33.4929047 67.2067303,37.0099047 C67.2437303,37.7249047 69.4927303,37.2719047 69.4487303,36.4099047" id="Fill-11"></path>
            <path d="M81.8757303,72.7970033 C83.6147303,72.7819047 85.0467303,72.1129047 86.5147303,71.2189047 C89.5837303,69.3499047 92.3897303,67.3339047 95.6127303,65.6809047 C99.4067303,63.7349047 103.32073,62.0099047 107.31273,60.5099047 C110.22273,59.4159047 113.67173,58.9539047 116.29773,57.2359047 C117.56273,56.4079047 115.62573,56.1009047 114.90673,56.5709047 C112.55573,58.1099047 109.08373,58.5879047 106.42673,59.5889047 C103.27673,60.7749047 100.16973,62.1009047 97.1347303,63.5569047 C94.5077303,64.8169047 91.8357303,66.1239047 89.3677303,67.6729047 C87.5267303,68.8289047 85.0217303,71.5069047 82.7477303,71.5259047 C81.9077303,71.5329047 80.3697303,72.8099047 81.8757303,72.7970033" id="Fill-12" transform="translate(98.978752, 64.573506) rotate(22.000000) translate(-98.978752, -64.573506) "></path>
            <path d="M2.01373031,25.9129047 C3.05173031,29.8089047 4.60973031,33.3359047 6.17473031,37.0099047 C6.50573031,37.7869047 8.71273031,37.1039047 8.41573031,36.4099047 C6.85173031,32.7349047 5.29373031,29.2079047 4.25473031,25.3119047 C4.04773031,24.5359047 1.80473031,25.1289047 2.01373031,25.9129047" id="Fill-18" transform="translate(5.221572, 31.151719) rotate(-12.000000) translate(-5.221572, -31.151719) "></path>
            <path d="M52.6427303,22.2859047 C52.4147303,24.1809047 52.2237303,26.0819047 51.9197303,27.9669047 C51.6557303,29.6059047 51.1807303,31.1789047 51.2557303,32.8489047 C51.2877303,33.5599047 53.5357303,33.1119047 53.4967303,32.2479047 C53.4177303,30.4799047 54.0217303,28.6719047 54.2767303,26.9309047 C54.5157303,25.2939047 54.6867303,23.6469047 54.8837303,22.0049047 C54.9907303,21.1199047 52.7337303,21.5239047 52.6427303,22.2859047" id="Fill-19"></path>
            <path d="M81.0167303,50.0719047 C82.7147303,47.9449047 84.5357303,45.9329047 86.4377303,43.9879047 C88.0907303,42.2969047 89.6997303,40.1179047 91.6627303,38.8109047 C91.0577303,38.8009047 90.4527303,38.7899047 89.8467303,38.7789047 C89.8807303,38.9369047 89.9147303,39.0939047 89.9497303,39.2519047 C90.1157303,40.0209047 92.3657303,39.4589047 92.1907303,38.6509047 C92.1567303,38.4939047 92.1227303,38.3359047 92.0877303,38.1789047 C91.9457303,37.5209047 90.5917303,37.9339047 90.2717303,38.1469047 C88.1127303,39.5839047 86.4437303,41.7759047 84.6407303,43.6199047 C82.6377303,45.6679047 80.7177303,47.7859047 78.9297303,50.0249047 C78.3147303,50.7959047 80.5597303,50.6439047 81.0167303,50.0719047" id="Fill-20" transform="translate(85.512135, 44.187404) rotate(12.000000) translate(-85.512135, -44.187404) "></path>
        </g>
    </g>
</svg>