<svg width="143" height="143" viewBox="0 0 143 143" fill="none" xmlns="http://www.w3.org/2000/svg">
<circle cx="71.5" cy="71.5" r="68" stroke="black" stroke-width="7"/>
<path fill-rule="evenodd" clip-rule="evenodd" d="M63.0001 54.5C63.0001 64.165 59.8661 72 56.0001 72C52.1341 72 49.0001 64.165 49.0001 54.5C49.0001 44.835 52.1341 37 56.0001 37C59.8661 37 63.0001 44.835 63.0001 54.5ZM94.0001 54.5C94.0001 64.165 90.8661 72 87.0001 72C83.1341 72 80.0001 64.165 80.0001 54.5C80.0001 44.835 83.1341 37 87.0001 37C90.8661 37 94.0001 44.835 94.0001 54.5ZM103.543 92.4304L106.032 96.0714C106.656 96.9833 107.838 97.1359 108.672 96.4123L109.587 95.6189C110.422 94.8953 110.593 93.5695 109.97 92.6577L103.129 82.6511C102.506 81.7392 101.324 81.5866 100.489 82.3102L99.5743 83.1036C98.7397 83.8272 98.5685 85.153 99.1919 86.0648L100.944 88.6282C92.9949 95.8358 82.7133 100.2 71.4215 100.2C60.2044 100.2 49.9842 95.8934 42.0568 88.7709L43.9067 86.0648C44.5301 85.153 44.3588 83.8272 43.5243 83.1036L42.6091 82.3102C41.7745 81.5866 40.5927 81.7392 39.9693 82.6511L33.1287 92.6577C32.5054 93.5695 32.6766 94.8953 33.5112 95.6189L34.4263 96.4123C35.2609 97.1359 36.4428 96.9833 37.0661 96.0714L39.4579 92.5727C48.1303 100.334 59.2705 105 71.4215 105C83.6465 105 94.8484 100.277 103.543 92.4304Z" fill="black"/>
</svg>
