<?xml version="1.0" encoding="UTF-8"?>
<svg width="90px" height="68px" viewBox="0 0 90 68" version="1.1" xmlns="http://www.w3.org/2000/svg" xmlns:xlink="http://www.w3.org/1999/xlink">
    <title>Group</title>
    <g id="Page-1" stroke="none" stroke-width="1" fill="none" fill-rule="evenodd">
        <g id="Group" transform="translate(0.000000, 0.637840)" fill="#000000">
            <path d="M42.660156,0.39648 C41.047506,0.42718 39.430961,0.55898 37.830078,0.83203 C33.717765,1.53342 29.769579,2.96332 26.019531,4.61719 C24.153631,5.44009 22.343844,6.44922 20.685547,7.67383 C16.77446,10.56206 12.966735,13.81149 9.941406,17.73242 C8.348569,19.79679 6.948762,22.13888 6.175781,24.7168 C5.834359,25.8554 5.723378,27.34407 5.664062,28.61328 C5.604752,29.88249 5.619142,30.91016 5.619142,30.91016 L5.625042,31.4805 L6.119183,31.7637 C6.119183,31.7637 14.61221,36.6932 19.564495,38.2559 C25.293748,40.0637 31.297512,40.5993 37.138714,41.1172 C42.499695,41.5925 47.961599,41.8946 53.396526,41.373 C57.443616,40.9847 61.317251,39.867 65.119183,38.9141 C69.334596,37.8574 73.932127,37.2441 78.066448,35.1172 C79.617556,34.3192 81.44701,32.8572 82.957073,31.5742 C84.467137,30.29128 85.626995,29.1875 85.626995,29.1875 L85.970745,28.86133 L85.935585,28.38867 C85.935585,28.38867 85.826878,26.94809 85.558632,25.19531 C85.290385,23.44254 84.902226,21.39848 84.158241,19.93945 C82.619493,16.92179 80.000902,14.71868 77.60746,12.70898 C74.528083,10.12334 71.04158,8.08136 67.511757,6.30469 C64.369498,4.72309 61.055657,3.48327 57.691444,2.52148 C54.372543,1.57265 50.945229,0.8468 47.466835,0.56445 C45.881169,0.43575 44.272845,0.36578 42.660194,0.39648 L42.660156,0.39648 Z M42.699216,2.39844 C44.229066,2.36934 45.770088,2.43404 47.304685,2.55859 C50.612968,2.82713 53.914744,3.52251 57.142575,4.44531 C60.403623,5.37761 63.600533,6.57539 66.613278,8.0918 C70.065197,9.82926 73.41569,11.79968 76.322263,14.24023 C78.706344,16.24207 81.079855,18.30774 82.374997,20.84766 C82.879023,21.8361 83.326353,23.82742 83.582028,25.49805 C83.797795,26.90791 83.85648,27.72535 83.884763,28.06445 C83.625974,28.30799 82.91964,28.98239 81.662106,30.05078 C80.197994,31.2947 78.363459,32.7157 77.150388,33.3398 C73.422368,35.2577 68.993902,35.8795 64.632809,36.9727 C60.786321,37.9367 57.008893,39.016 53.207028,39.3809 C47.972578,39.8831 42.629959,39.5963 37.31445,39.125 C31.475594,38.6073 25.619131,38.0703 20.166013,36.3496 C15.995825,35.0337 8.459963,30.77832 7.630856,30.30859 C7.62945032,29.96812 7.620676,29.59156 7.662106,28.70508 C7.718426,27.50006 7.864936,26.04105 8.089841,25.29102 C8.766796,23.03335 10.034331,20.88753 11.525388,18.95508 C14.380713,15.25447 18.040293,12.11359 21.873044,9.2832 C23.393958,8.16005 25.075985,7.21914 26.826169,6.44727 C30.491027,4.83097 34.289734,3.46387 38.166013,2.80273 C39.651098,2.54943 41.169366,2.42757 42.699216,2.39844 Z" id="Shape"></path>
            <path d="M6.136719,29.92578 C6.136719,29.92578 5.669214,30.13252 5.107422,30.41992 C4.5456294,30.70732 3.9017449,31.0475 3.390625,31.4844 C2.438413,32.2984 1.7550644,33.3043 1.1796875,34.2676 C0.6759975,35.1107 0.234375,36.4355 0.234375,36.4355 L0,37.0879 L0.5273438,37.5352 C0.5273438,37.5352 1.0835373,38.0079 1.8027344,38.5488 C2.5219315,39.0898 3.3717702,39.7029 4.1953125,40.0508 C6.032726,40.8269 7.978405,41.0084 9.771484,41.168 C11.473703,41.3195 13.386515,41.5668 15.304688,41.0449 C16.431404,40.7386 17.63715,40.0262 18.652344,39.3867 C19.667537,38.7472 20.455078,38.168 20.455078,38.168 L19.271484,36.5566 C19.271484,36.5566 18.537591,37.0951 17.587891,37.6934 C16.638191,38.2916 15.434262,38.9377 14.78125,39.1152 C13.36432,39.5007 11.68954,39.3307 9.949219,39.1762 C8.172261,39.018 6.438834,38.8279 4.9746094,38.2094 C4.5255856,38.0197 3.6716329,37.4538 3.0039062,36.9516 C2.6595864,36.6926 2.607556,36.6404 2.3945312,36.4672 C2.5741525,36.0158 2.7443335,35.5533 2.8984375,35.2953 C3.4274542,34.4096 4.0046213,33.5917 4.6894531,33.0063 C4.9050143,32.822 5.510661,32.4609 6.017578,32.2016 C6.524495,31.9422 6.943359,31.7563 6.943359,31.7563 L6.136719,29.92618 L6.136719,29.92578 Z" id="Path"></path>
            <path d="M20.693359,36.9141 L19.164062,38.2031 C19.164062,38.2031 20.072512,39.2809 21.283203,40.5156 C22.493894,41.7503 23.965067,43.1469 25.380859,43.8887 C26.133302,44.2829 27.006512,44.5099 27.90625,44.4492 C29.718762,44.327 31.880487,43.4822 33.693359,42.6895 C35.506231,41.8967 36.929688,41.1289 36.929688,41.1289 L35.980469,39.3691 C35.980469,39.3691 34.623643,40.1004 32.892578,40.8574 C31.161513,41.6144 29.016166,42.3692 27.771484,42.4531 C27.312177,42.4841 26.762713,42.3551 26.308594,42.1172 C25.350522,41.6152 23.864671,40.2918 22.710938,39.1152 C21.557204,37.9386 20.693359,36.9141 20.693359,36.9141 Z" id="Path"></path>
            <path d="M60.445312,38.0859 C60.445312,38.0859 55.798477,45.1943 53.095703,48.0957 C51.901907,49.3772 50.85723,50.9297 49.753906,52.1211 C48.650582,53.3125 47.581342,54.0742 46.335938,54.1172 C45.191982,54.1562 44.152004,53.5327 43.048828,52.5039 C41.945652,51.4751 40.87306,50.1007 39.701172,48.9648 C37.465143,46.7975 33.554688,41.1465 33.554688,41.1465 L31.904297,42.2754 C31.904297,42.2754 35.688453,47.8607 38.308594,50.4004 C39.327679,51.3882 40.413948,52.7827 41.683594,53.9668 C42.953239,55.1509 44.500695,56.183 46.40625,56.1172 C48.420663,56.0472 49.969171,54.8321 51.222656,53.4785 C52.476555,52.1245 53.528445,50.5648 54.558594,49.459 C57.577298,46.2184 62.123047,39.1758 62.123047,39.1758 L60.445312,38.0859 L60.445312,38.0859 Z" id="Path"></path>
            <path d="M84.996094,27.33789 L85.138672,29.33203 C85.138672,29.33203 85.673396,29.29533 86.283203,29.34003 C86.89301,29.38453 87.537083,29.64436 87.517578,29.62519 C87.583248,29.68979 87.888062,30.50407 87.957031,31.26779 C88.006551,31.81609 87.986751,32.05869 87.980471,32.29709 C87.764781,32.48829 87.420443,32.80249 86.687502,33.38299 C85.763186,34.11509 84.587687,34.93749 83.902346,35.23069 C82.283891,35.92319 80.590673,36.53709 79.388674,36.15639 C79.115967,36.07039 78.590658,35.67919 78.21094,35.28339 C77.831221,34.88759 77.583986,34.53929 77.583986,34.53929 L76.919924,33.60179 L73.925783,36.42009 L73.890623,36.46109 C73.890623,36.46109 73.477859,36.94119 72.927732,37.49429 C72.377606,38.04739 71.646715,38.66729 71.296873,38.84789 C70.315422,39.35449 69.123143,39.60709 67.996092,39.57049 C67.127104,39.54249 65.528444,39.11089 64.236326,38.66819 C62.944208,38.22549 61.923826,37.79119 61.923826,37.79119 L61.140623,39.63299 C61.140623,39.63299 62.222363,40.09089 63.587889,40.55879 C64.953415,41.02669 66.568818,41.52419 67.929686,41.56859 C69.390666,41.61559 70.895335,41.30639 72.214842,40.62519 C73.022431,40.20839 73.738381,39.51509 74.345701,38.90449 C74.911153,38.33599 75.278722,37.90449 75.335936,37.83809 L75.347656,37.82609 L76.683594,36.56829 C76.730094,36.61929 76.717534,36.61529 76.767574,36.66829 C77.255363,37.17679 77.889748,37.78119 78.785152,38.06479 C80.949291,38.75009 83.061648,37.76519 84.689449,37.06869 C85.779439,36.60239 86.950809,35.72679 87.929684,34.95149 C88.908558,34.17609 89.660152,33.49829 89.660152,33.49829 L89.96484,33.22099 L89.98828,32.81079 C89.98828,32.81079 90.03311,32.01709 89.94922,31.08819 C89.86533,30.15929 89.784107,29.05089 88.91797,28.19951 C88.137019,27.43187 87.204924,27.40259 86.429689,27.34599 C85.654453,27.28939 84.996095,27.33799 84.996095,27.33799 L84.996094,27.33789 Z" id="Path"></path>
            <path d="M10.830078,39.5762 L9.351562,40.9219 C9.351562,40.9219 9.957104,41.5893 10.759766,42.3535 C11.562427,43.1177 12.52323,43.9843 13.501953,44.4746 C17.434885,46.4449 21.895445,47.0087 26.105469,47.2676 C29.594565,47.482 35.853516,46.3594 35.853516,46.3594 L35.513672,44.3887 C35.513672,44.3887 29.099987,45.4479 26.228516,45.2715 C22.114203,45.0185 17.920157,44.4508 14.396484,42.6855 C13.856213,42.4149 12.887282,41.6152 12.140625,40.9043 C11.393968,40.1934 10.830078,39.5762 10.830078,39.5762 Z" id="Path"></path>
            <path d="M86.212891,34.2871 L83.740234,35.9199 C83.740234,35.9199 77.260803,40.1888 73.816406,41.918 C70.154864,43.7563 66.321143,45.328 62.380859,46.0547 C60.38347,46.4231 55.550781,46.168 55.550781,46.168 L55.425781,48.1641 C55.425781,48.1641 60.101513,48.5085 62.742188,48.0215 C66.959692,47.2436 70.960849,45.5888 74.712891,43.7051 C77.446597,42.3327 80.13785,40.5191 82.164062,39.207 C81.578631,40.4596 80.843498,41.865 80.191406,42.5742 C77.361463,45.6521 73.058189,47.3773 68.900391,49.123 C65.727082,50.4556 62.299802,51.2809 58.84375,51.8672 C55.901648,52.3664 49.470703,52.5137 49.470703,52.5137 L49.509763,54.5137 C49.509763,54.5137 55.846929,54.4031 59.177731,53.8379 C62.723377,53.2364 66.299179,52.3839 69.673825,50.9668 C73.800331,49.2342 78.410662,47.464 81.662106,43.9277 C82.710947,42.787 83.544565,41.1168 84.183591,39.6914 C84.822617,38.266 85.236325,37.084 85.236325,37.084 L86.212891,34.2871 L86.212891,34.2871 Z" id="Path"></path>
            <path d="M84.882812,35.9805 L82.972656,36.5723 C83.695073,38.9057 84.026186,39.9522 84.017578,40.8555 C84.008978,41.7562 83.66144,42.7998 82.824219,45.123 C82.287667,46.1595 81.540121,47.9902 80.6875,49.8105 C80.250555,50.7434 79.796482,51.651 79.369141,52.375 C78.941799,53.099 78.498003,53.6421 78.318359,53.7793 C74.970957,56.3364 71.485339,58.7439 67.703125,60.3359 C63.086675,62.2792 58.080202,63.4413 53.066406,63.9785 C46.234524,64.7107 39.23404,64.2158 32.335938,63.3398 C29.063835,62.9244 25.798983,62.5066 22.974609,61.2422 C19.9392,59.8833 17.274817,57.563 14.603516,55.25 C11.665429,52.706 8.351528,50.5135 7.023438,47.4141 C6.783386,46.8538 6.793346,45.6744 6.716797,44.6523 C6.786987,44.7513 6.798867,44.8918 6.875,44.9844 C8.636363,47.1263 11.201932,48.1921 13.394531,49.2246 C16.553069,50.712 19.924223,51.626 23.248047,52.3691 C27.444623,53.3075 31.735733,53.8545 36.021484,54.0586 C38.53594,54.1783 42.537109,53.7988 42.537109,53.7988 L42.355469,51.8066 C42.355469,51.8066 38.315973,52.1652 36.117188,52.0605 C31.937356,51.8615 27.757955,51.329 23.683594,50.418 C20.421051,49.6885 17.193388,48.802 14.246094,47.4141 C12.011661,46.3618 9.766619,45.3506 8.419922,43.7129 C8.059946,43.2752 7.545583,42.1007 7.216797,41.0977 C6.888011,40.0946 6.691406,39.2539 6.691406,39.2539 L4.7265625,39.3594 C4.7265625,39.3594 4.5435373,40.8471 4.5019531,42.6641 C4.4603691,44.481 4.5001731,46.6016 5.185547,48.2012 C6.836917,52.0551 10.514117,54.3539 13.294922,56.7617 C15.95866,59.0681 18.750664,61.5437 22.15625,63.0684 C25.348504,64.4975 28.816527,64.9094 32.083984,65.3242 C39.056032,66.2096 46.209251,66.7245 53.279297,65.9668 C58.456269,65.4121 63.648601,64.2128 68.478516,62.1797 C72.518825,60.479 76.136005,57.9643 79.533203,55.3691 C80.161551,54.8892 80.609435,54.2098 81.091797,53.3926 C81.574158,52.5754 82.048837,51.6214 82.5,50.6582 C83.402326,48.7318 84.234891,46.7185 84.646484,45.9395 L84.677734,45.8785 L84.703124,45.8125 C85.546807,43.4718 86.004588,42.238 86.0178632,40.875 C86.030567,39.512 85.600562,38.2988 84.882811,35.9805 L84.882812,35.9805 Z" id="Path"></path>
            <path d="M22.909077,24.40946 C23.425718,23.36372 25.117644,23.23344 26.273733,23.41305 C27.071206,23.53695 28.239127,23.96857 28.274353,24.77179 C28.311923,25.62927 27.117191,26.22692 26.273733,26.4023 C25.287369,26.60739 24.108607,26.26301 23.363763,25.58705 C23.051672,25.30381 22.72265,24.78681 22.909077,24.40946 L22.909077,24.40946 Z" id="Path"></path>
            <path d="M22.63627,19.24622 C23.486411,18.64655 24.726116,18.50959 25.728119,18.7933 C26.452375,18.99837 27.559875,19.49981 27.455911,20.24264 C27.364141,20.8985 26.288751,20.92645 25.63718,21.05788 C24.359344,21.31564 22.387718,22.08683 21.726889,20.96728 C21.397016,20.40843 22.105112,19.62087 22.63627,19.24621 L22.63627,19.24622 Z" id="Path"></path>
            <path d="M29.001846,15.71347 C29.196798,14.75833 30.84359,14.8505 31.820887,14.89822 C32.636103,14.93802 33.595617,15.16045 34.094314,15.80406 C34.39296,16.18948 34.569347,16.86382 34.276172,17.25338 C33.705271,18.01201 32.37651,17.95179 31.457141,17.70631 C30.437415,17.43403 28.791515,16.744 29.001846,15.71347 L29.001846,15.71347 Z" id="Path"></path>
            <path d="M20.908457,14.26414 C21.154254,15.02336 22.214045,15.28867 23.000016,15.44172 C23.929875,15.6228 25.087518,15.67919 25.819048,15.07939 C26.263093,14.7153 26.644933,13.94917 26.364672,13.44888 C25.848753,12.52792 24.331432,12.74199 23.272823,12.72422 C22.654654,12.71392 21.939484,12.70522 21.454082,13.08656 C21.113328,13.35431 20.77524,13.85269 20.908457,14.26414 L20.908457,14.26414 Z" id="Path"></path>
            <path d="M14.361003,19.24622 C14.442953,18.41728 15.409242,17.84881 16.179735,17.52513 C16.906456,17.21984 17.918348,16.95633 18.544091,17.43453 C19.08666,17.8492 19.320665,18.82632 18.998787,19.42735 C18.402618,20.54053 16.664326,21.1523 15.452242,20.78611 C14.84864,20.60375 14.299168,19.87147 14.361003,19.24619 L14.361003,19.24622 Z" id="Path"></path>
            <path d="M25.273433,8.73855 C25.135918,9.82405 26.736774,10.63891 27.819658,10.82198 C28.774573,10.98341 29.909834,10.55154 30.54777,9.82556 C30.915905,9.40663 31.205373,8.66867 30.911516,8.19506 C30.385869,7.34785 28.996796,7.37511 28.001546,7.4704 C27.002628,7.5661 25.399067,7.7468 25.273433,8.73855 L25.273433,8.73855 Z" id="Path"></path>
            <path d="M32.821187,10.45964 C33.379094,9.63314 34.736067,9.63809 35.731168,9.73497 C36.297982,9.79017 36.857011,10.07658 37.277092,10.45964 C37.58771,10.74288 38.025954,11.14236 37.913666,11.54663 C37.729153,12.21089 36.781661,12.45915 36.094914,12.54305 C35.036727,12.67232 33.711603,12.52135 33.003075,11.72781 C32.718166,11.40875 32.582002,10.814 32.821187,10.45964 L32.821187,10.45964 Z" id="Path"></path>
            <path d="M39.004905,6.56455 C39.129066,5.99788 39.571328,5.45707 40.096144,5.20581 C40.64255,4.94422 41.321332,5.08285 41.914875,5.20581 C42.659189,5.36002 43.746801,5.39989 44.006434,6.11163 C44.214762,6.68275 43.695145,7.40445 43.187992,7.74214 C42.126859,8.44868 40.402042,8.7601 39.368651,8.01388 C38.963888,7.72161 38.898296,7.05108 39.004905,6.56455 L39.004905,6.56455 Z" id="Path"></path>
            <path d="M43.006114,11.00313 C43.515231,10.14595 44.919442,10.19891 45.916105,10.27846 C46.836556,10.35186 48.19921,10.4838 48.462329,11.36549 C48.618039,11.88725 48.034774,12.46738 47.552978,12.72422 C46.350322,13.36536 44.541118,13.55379 43.4608,12.72422 C42.989133,12.36204 42.70286,11.51369 43.006114,11.00313 L43.006114,11.00313 Z" id="Path"></path>
            <path d="M38.095524,15.44172 C38.357511,14.57167 39.821353,14.68522 40.732697,14.71706 C41.824938,14.75526 43.565625,14.74646 43.824546,15.80406 C43.982039,16.44741 43.084941,17.02615 42.4605,17.25338 C41.485787,17.6081 40.286918,17.37255 39.368651,16.89105 C38.798391,16.59203 37.91039,16.0566 38.095524,15.44172 L38.095524,15.44172 Z" id="Path"></path>
            <path d="M30.456831,21.05788 C30.621677,20.21005 31.7097,19.7367 32.54839,19.51797 C33.494038,19.27133 34.632325,19.35958 35.45836,19.8803 C35.792321,20.09082 36.190692,20.49478 36.094914,20.87672 C35.900803,21.65067 34.770912,21.82663 34.003375,22.05431 C33.100907,22.32202 32.020689,22.66641 31.184324,22.23546 C30.773349,22.02372 30.368837,21.51037 30.456831,21.05788 L30.456831,21.05788 Z" id="Path"></path>
            <path d="M33.730568,26.49288 C33.51667,25.85721 34.318501,25.17718 34.912746,24.86238 C35.742829,24.42265 36.823469,24.53011 37.731778,24.77178 C38.455082,24.96424 39.244991,25.31677 39.641458,25.94936 C39.802778,26.20678 39.902273,26.60332 39.732428,26.85521 C39.256423,27.56102 38.13072,27.58431 37.277123,27.57988 C36.040263,27.57388 34.12367,27.66098 33.730599,26.49287 L33.730568,26.49288 Z" id="Path"></path>
            <path d="M39.86268,21.22561 C40.315632,20.3627 41.718701,20.36602 42.69197,20.45697 C43.617752,20.54357 45.046067,20.76047 45.199743,21.67397 C45.319977,22.38867 44.328603,22.9339 43.656494,23.21122 C42.705976,23.6034 41.410387,23.80243 40.570005,23.21122 C39.994114,22.80607 39.535982,21.84797 39.86268,21.22561 Z" id="Path"></path>
            <path d="M46.935901,18.79162 C47.005631,17.97737 48.200442,17.65542 48.993577,17.44652 C49.969482,17.18947 51.170024,17.08974 52.015776,17.63869 C52.521787,17.96714 53.031014,18.66549 52.851691,19.23998 C52.621082,19.97874 51.563656,20.22488 50.794035,20.32888 C49.814944,20.46118 48.77464,20.14703 47.900424,19.68835 C47.511311,19.48419 46.898522,19.22811 46.935901,18.79162 L46.935901,18.79162 Z" id="Path"></path>
            <path d="M50.536816,24.23605 C50.577796,23.38702 52.001279,23.21752 52.851691,23.14715 C53.872769,23.06265 55.230884,23.13715 55.80959,23.97984 C56.064965,24.35151 55.962464,24.97247 55.680981,25.32494 C55.216828,25.90614 54.300284,26.10939 53.559016,26.02951 C52.393198,25.90388 50.480502,25.40276 50.536816,24.23605 Z" id="Path"></path>
            <path d="M62.921293,24.72651 C63.082683,23.88381 64.349359,23.66754 65.19473,23.50364 C66.003033,23.34692 66.968779,23.31456 67.650016,23.77539 C68.10434,24.08272 68.616773,24.71285 68.422993,25.22472 C68.165724,25.90424 67.097418,25.88374 66.376898,25.99468 C65.551874,26.12171 64.622957,26.23045 63.876149,25.8588 C63.433466,25.63851 62.828571,25.2107 62.921293,24.72651 Z" id="Path"></path>
            <path d="M58.192591,19.29151 C58.336789,18.57547 59.381572,18.3386 60.102262,18.20451 C60.900817,18.05592 61.802112,18.17351 62.512082,18.56684 C62.981896,18.82709 63.634059,19.25965 63.557867,19.78971 C63.475617,20.36173 62.665648,20.60065 62.102872,20.74084 C61.12845,20.98357 59.982028,20.9513 59.101942,20.46909 C58.666342,20.23041 58.094799,19.77705 58.192591,19.29151 L58.192591,19.29151 Z" id="Path"></path>
            <path d="M52.918254,13.85653 C53.375384,13.20782 54.398336,13.19245 55.191671,13.13184 C56.063703,13.06524 57.154691,12.93381 57.78336,13.53947 C58.071816,13.81736 58.179727,14.35453 58.010703,14.71706 C57.710585,15.36075 56.850997,15.65266 56.146507,15.75878 C55.073692,15.92036 53.661336,15.90717 52.963709,15.07939 C52.700429,14.76698 52.682987,14.19038 52.918229,13.85653 L52.918254,13.85653 Z" id="Path"></path>
            <path d="M48.553278,6.8363 C49.360149,6.28555 50.447931,6.0758 51.417784,6.20222 C52.298302,6.317 53.579343,6.5639 53.782151,7.42509 C53.893618,7.89842 53.350528,8.37695 52.918254,8.60268 C51.884282,9.14261 50.430288,9.27106 49.417165,8.69328 C48.846123,8.36761 48.434998,7.62711 48.462329,6.97221 C48.464329,6.91781 48.508219,6.86709 48.553299,6.83632 L48.553278,6.8363 Z" id="Path"></path>
            <path d="M57.646957,9.32734 C57.889698,8.56459 58.903874,8.20854 59.693031,8.05919 C60.767779,7.85579 62.136224,7.88908 62.921293,8.64798 C63.232752,8.94905 63.399382,9.53523 63.194121,9.91613 C62.762799,10.71645 61.554632,10.8164 60.647876,10.91256 C59.807945,11.00166 58.811081,11.02503 58.147106,10.50492 C57.810761,10.24146 57.517666,9.73363 57.646957,9.32734 L57.646957,9.32734 Z" id="Path"></path>
            <path d="M63.057717,14.12826 C63.363536,13.17753 64.874715,13.10789 65.876748,13.08656 C66.911793,13.06456 68.512469,13.05676 68.832194,14.03768 C69.046582,14.69539 68.231186,15.41586 67.604551,15.71347 C66.522389,16.22742 65.057104,16.11841 64.012552,15.53231 C63.518113,15.25487 62.884545,14.6666 63.057717,14.12826 L63.057717,14.12826 Z" id="Path"></path>
            <path d="M69.120129,18.56743 C69.299042,17.96863 70.270007,18.0311 70.888427,17.92692 C71.659891,17.79696 72.527204,17.62773 73.235451,17.95902 C73.758413,18.20359 74.473543,18.70768 74.360743,19.27208 C74.236272,19.89484 73.283961,20.02337 72.656755,20.13678 C71.807856,20.29027 70.833535,20.27533 70.084652,19.84855 C69.619538,19.58349 68.967265,19.0791 69.120129,18.5675 L69.120129,18.56743 Z" id="Path"></path>
        </g>
    </g>
</svg>