<svg width="389" height="158" viewBox="0 0 389 158" fill="none" xmlns="http://www.w3.org/2000/svg">
<path d="M0 2.19444V155.806H38.9239C65.6021 155.806 81.784 141.761 81.784 117.842V115.208C81.784 92.825 67.1328 79 57.0738 78.5611V76.1472C67.3515 75.4889 79.1599 63.6389 79.1599 41.0361V39.9389C79.1599 15.5806 64.5087 2.19444 38.7053 2.19444H0ZM34.9878 32.4778H38.2679C42.86 32.4778 44.1721 34.4528 44.1721 39.9389V54.6417C44.1721 60.1278 42.86 62.1028 38.2679 62.1028H34.9878V32.4778ZM34.9878 92.6056H38.4866C43.2974 92.6056 44.8281 94.5806 44.8281 100.067V117.842C44.8281 123.547 43.2974 125.303 38.7053 125.303H34.9878V92.6056Z" fill="black"/>
<path d="M86.7212 40.3778V117.403C86.7212 144.175 101.372 158 126.301 158C151.449 158 166.974 143.956 166.974 117.403V40.3778C166.974 14.0444 151.449 0 126.301 0C101.372 0 86.7212 13.6056 86.7212 40.3778ZM121.709 37.7444C121.709 32.2583 124.114 30.5028 126.739 30.5028C129.581 30.5028 131.987 32.2583 131.987 37.7444V120.256C131.987 125.522 129.581 127.497 126.739 127.497C124.114 127.497 121.709 125.522 121.709 120.256V37.7444Z" fill="black"/>
<path d="M173.026 2.19444V155.806H211.949C238.628 155.806 254.81 141.761 254.81 117.842V115.208C254.81 92.825 240.158 79 230.099 78.5611V76.1472C240.377 75.4889 252.185 63.6389 252.185 41.0361V39.9389C252.185 15.5806 237.534 2.19444 211.731 2.19444H173.026ZM208.013 32.4778H211.293C215.886 32.4778 217.198 34.4528 217.198 39.9389V54.6417C217.198 60.1278 215.886 62.1028 211.293 62.1028H208.013V32.4778ZM208.013 92.6056H211.512C216.323 92.6056 217.854 94.5806 217.854 100.067V117.842C217.854 123.547 216.323 125.303 211.731 125.303H208.013V92.6056Z" fill="black"/>
<path d="M339.781 55.7389V40.3778C339.781 14.7028 324.912 0 299.327 0C273.961 0 259.965 14.0444 259.965 40.3778V42.5722C259.965 67.3694 264.776 78.5611 280.521 86.6806L288.174 90.4111C303.7 98.5306 305.012 100.506 305.012 108.406V120.256C305.012 124.864 303.263 127.497 299.983 127.497C296.703 127.497 294.735 124.864 294.735 120.036V102.261H259.747V117.403C259.747 143.736 273.742 158 299.327 158C325.13 158 340 143.297 340 117.403V114.331C340 89.3139 335.408 79.2194 319.663 71.1L313.103 68.0278C296.265 59.0306 294.953 56.8361 294.953 49.1556V37.7444C294.953 33.1361 296.703 30.5028 299.983 30.5028C303.044 30.5028 304.794 33.1361 304.794 37.7444V55.7389H339.781Z" fill="black"/>
<path d="M368.469 40.504C379.837 40.504 388.349 31.824 388.349 21.072C388.349 10.264 379.837 1.58398 368.469 1.58398C357.157 1.58398 348.645 10.264 348.645 21.072C348.645 31.824 357.157 40.504 368.469 40.504ZM368.469 35.688C359.957 35.688 354.133 29.304 354.133 21.072C354.133 12.784 359.957 6.45598 368.469 6.45598C377.093 6.45598 382.861 12.784 382.861 21.072C382.861 29.304 377.093 35.688 368.469 35.688ZM372.893 22.36C372.501 24.712 370.765 26.336 368.581 26.336C365.893 26.336 364.213 24.208 364.213 21.072C364.213 17.936 365.893 15.864 368.581 15.864C370.821 15.864 372.501 17.432 372.893 19.784H378.829C378.213 14.464 374.013 10.824 368.525 10.824C362.925 10.824 358.445 15.304 358.445 21.072C358.445 26.84 362.925 31.32 368.525 31.32C374.013 31.32 378.213 27.736 378.829 22.36H372.893Z" fill="black"/>
</svg>
