<svg width="197" height="197" viewBox="0 0 197 197" fill="none" xmlns="http://www.w3.org/2000/svg">
<path d="M94.5289 2.4405C96.1764 -0.813505 100.824 -0.813496 102.471 2.44051L110.774 18.8404C112.079 21.417 115.453 22.0883 117.645 20.207L131.592 8.23293C134.359 5.85708 138.652 7.63549 138.929 11.2723L140.324 29.6013C140.543 32.4809 143.404 34.3925 146.149 33.493L163.616 27.7677C167.082 26.6317 170.368 29.9178 169.232 33.3836L163.507 50.8513C162.607 53.5956 164.519 56.4566 167.399 56.6758L185.728 58.0708C189.364 58.3476 191.143 62.6411 188.767 65.4084L176.793 79.3554C174.912 81.5466 175.583 84.9214 178.16 86.2259L194.559 94.5289C197.813 96.1764 197.813 100.824 194.559 102.471L178.16 110.774C175.583 112.079 174.912 115.453 176.793 117.645L188.767 131.592C191.143 134.359 189.365 138.652 185.728 138.929L167.399 140.324C164.519 140.543 162.607 143.404 163.507 146.149L169.232 163.616C170.368 167.082 167.082 170.368 163.616 169.232L146.149 163.507C143.404 162.607 140.543 164.519 140.324 167.399L138.929 185.728C138.652 189.365 134.359 191.143 131.592 188.767L117.645 176.793C115.453 174.912 112.079 175.583 110.774 178.16L102.471 194.559C100.824 197.813 96.1764 197.813 94.5289 194.559L86.2259 178.16C84.9214 175.583 81.5466 174.912 79.3554 176.793L65.4084 188.767C62.6411 191.143 58.3476 189.365 58.0708 185.728L56.6758 167.399C56.4566 164.519 53.5956 162.607 50.8513 163.507L33.3836 169.232C29.9178 170.368 26.6317 167.082 27.7677 163.616L33.493 146.149C34.3925 143.404 32.4809 140.543 29.6013 140.324L11.2722 138.929C7.63548 138.652 5.85709 134.359 8.23294 131.592L20.207 117.645C22.0883 115.453 21.417 112.079 18.8404 110.774L2.4405 102.471C-0.813505 100.824 -0.813496 96.1764 2.44051 94.5289L18.8404 86.2259C21.417 84.9214 22.0883 81.5466 20.207 79.3554L8.23293 65.4084C5.85709 62.6411 7.63549 58.3476 11.2723 58.0708L29.6012 56.6758C32.4809 56.4566 34.3925 53.5956 33.493 50.8513L27.7677 33.3836C26.6317 29.9178 29.9178 26.6317 33.3836 27.7677L50.8513 33.493C53.5956 34.3925 56.4566 32.4809 56.6758 29.6013L58.0708 11.2723C58.3476 7.6355 62.6411 5.85709 65.4084 8.23294L79.3554 20.207C81.5466 22.0883 84.9214 21.417 86.2259 18.8404L94.5289 2.4405Z" fill="#CE4339"/>
</svg>
