<?xml version="1.0" encoding="UTF-8"?>
<svg width="1689px" height="1687px" viewBox="0 0 1689 1687" version="1.1" xmlns="http://www.w3.org/2000/svg" xmlns:xlink="http://www.w3.org/1999/xlink">
    <title>Group</title>
    <defs>
        <polygon id="path-1" points="0.740903061 0.199051178 148.614739 0.199051178 148.614739 29.4028936 0.740903061 29.4028936"></polygon>
    </defs>
    <g id="Page-1" stroke="none" stroke-width="1" fill="none" fill-rule="evenodd">
        <g id="Group">
            <g id="Group-78">
                <path d="M524.426554,1541.53234 C516.862195,1525.52299 516.908279,1517.8511 522.069686,1505.71377 L523.455498,1502.45485 C533.162762,1479.62604 547.284214,1470.6296 573.657425,1481.75713 C600.030636,1492.88137 604.214404,1507.25142 591.814518,1536.41446 L590.273996,1540.04058 C588.038923,1545.2896 585.965143,1546.12891 580.695109,1543.90603 L568.324849,1538.68652 C563.048232,1536.46036 562.212136,1534.39813 564.443918,1529.14583 L567.837675,1521.17558 C570.918719,1513.92663 569.239945,1509.80216 562.873771,1507.117 C556.507596,1504.43184 552.44233,1505.9236 549.670707,1512.44143 L548.205894,1515.88722 C546.04653,1520.9592 546.059697,1523.95583 550.250048,1532.77195 L563.831659,1561.36123 C571.471727,1577.19025 571.399309,1584.42282 566.237902,1596.56015 L564.545961,1600.54691 C554.835406,1623.37244 540.713953,1632.37216 514.344034,1621.24136 C487.970823,1610.12039 483.783763,1595.74706 496.186941,1566.58402 L497.727463,1562.95791 C499.959245,1557.70889 502.029733,1556.86957 507.309642,1559.09573 L519.676611,1564.31196 C524.949936,1566.53812 525.786031,1568.60035 523.554249,1573.85265 L520.163784,1581.8229 C517.08274,1589.07186 518.758222,1593.19632 525.124397,1595.88476 C531.490571,1598.56665 535.55913,1597.07489 538.330753,1590.55706 L539.640855,1587.47846 C541.875928,1582.22289 541.85947,1579.22954 538.771842,1572.36745 L524.426554,1541.53234 Z" id="Fill-1" fill="#231F20"></path>
                <path d="M433.773808,1478.52508 C432.312592,1480.85601 432.561588,1481.93963 434.891016,1483.39973 L448.553057,1491.95738 C450.882485,1493.41748 451.96693,1493.16867 453.428146,1490.84102 L481.62044,1445.89865 C484.650989,1441.07311 486.816603,1440.5755 491.645823,1443.60374 L502.306803,1450.27896 C507.139299,1453.30393 507.637292,1455.47117 504.61002,1460.29998 L434.019528,1572.81304 C430.988979,1577.63859 428.820089,1578.1362 423.994145,1575.11123 L413.333166,1568.43273 C408.500669,1565.40449 408.005952,1563.23726 411.033225,1558.41499 L435.051553,1520.13147 C436.411205,1517.96751 436.263772,1516.71693 433.931069,1515.2601 L420.272304,1506.69918 C417.9396,1505.23908 416.753591,1505.65485 415.397215,1507.81881 L391.378887,1546.10232 C388.348339,1550.92787 386.182725,1551.42548 381.353504,1548.39724 L370.692525,1541.72201 C365.860028,1538.69705 365.362035,1536.52981 368.392584,1531.70099 L438.983076,1419.18793 C442.010348,1414.35911 444.179238,1413.86477 449.005182,1416.88974 L459.666162,1423.56824 C464.498658,1426.59321 464.993375,1428.75717 461.966103,1433.58599 L433.773808,1478.52508 Z" id="Fill-3" fill="#231F20"></path>
                <path d="M367.787513,1384.91009 C362.628755,1380.36501 358.190129,1380.64334 352.998638,1386.54082 L304.573094,1441.52386 C298.861145,1448.01075 299.011718,1452.59185 304.167202,1457.1402 C309.329233,1461.68201 313.892245,1461.25304 319.600921,1454.76943 L368.029739,1399.78966 C373.221229,1393.89547 372.939724,1389.45844 367.787513,1384.91009 M385.961004,1364.27385 C407.325985,1383.10908 406.478194,1398.33576 384.537108,1423.24529 L344.291598,1468.93842 C322.478172,1493.7006 307.358692,1496.60513 285.993711,1477.77317 C264.625457,1458.93793 265.60418,1443.57045 287.417607,1418.80827 L327.663116,1373.1086 C349.604202,1348.19906 364.596023,1345.44189 385.961004,1364.27385" id="Fill-5" fill="#231F20"></path>
                <path d="M177.138326,1359.03316 C173.62373,1354.55478 173.800771,1351.92006 177.777642,1348.07585 L251.649727,1276.05577 C252.921801,1274.81359 252.993929,1274.26442 252.141509,1273.17915 C251.174339,1271.94351 250.502238,1271.72449 248.984274,1272.65613 L164.211039,1330.77037 C159.473547,1333.96407 157.509701,1334.0033 153.995105,1329.52493 L145.031574,1318.09037 C141.516978,1313.60872 141.418622,1310.93804 146.280698,1307.89798 L253.764386,1238.30995 C261.68862,1233.12876 266.229399,1233.82504 272.530755,1241.85669 L282.825374,1254.99107 C289.12673,1263.02926 288.464464,1267.27881 281.750012,1274.00291 L252.820167,1303.02734 C251.702184,1304.14857 251.636613,1304.69774 252.239865,1305.4692 C252.846395,1306.24719 253.400468,1306.3093 254.761063,1305.49862 L289.870958,1284.3522 C298.034525,1279.48483 302.332693,1279.87056 308.63077,1287.90221 L319.049973,1301.19677 C325.351329,1309.22842 324.931676,1313.78524 317.974612,1320.20207 L224.306695,1407.40939 C220.175734,1411.38109 217.602079,1410.64559 214.090762,1406.16395 L205.120674,1394.72939 C201.609356,1390.24774 202.120809,1388.35506 206.373076,1384.54354 L283.513867,1316.69455 C284.785941,1315.45237 284.733485,1314.7463 283.763037,1313.51066 C282.917173,1312.43192 282.366378,1312.36328 280.848414,1313.29491 L192.799916,1367.23806 C188.101767,1370.1539 185.495327,1369.69953 181.98401,1365.21789 L177.138326,1359.03316 Z" id="Fill-7" fill="#231F20"></path>
                <path d="M172.074099,1147.79514 C200.255482,1133.30618 214.74351,1136.00347 227.862203,1161.24241 C240.980896,1186.47808 235.001136,1200.14088 206.823038,1214.62984 L149.061383,1244.32617 C120.886569,1258.81513 106.211365,1255.76517 93.0893882,1230.52949 C79.9706952,1205.29055 86.1376302,1191.9739 114.312445,1177.49147 L119.56649,1174.79418 C124.643211,1172.18179 126.767815,1172.85448 129.391553,1177.89965 L135.184138,1189.04149 C137.804593,1194.08667 137.128134,1196.19944 132.051414,1198.80856 L122.603984,1203.6676 C115.60297,1207.26943 114.338715,1211.66804 117.507561,1217.76144 C120.676407,1223.85157 125.010994,1225.37002 132.015292,1221.77146 L198.170283,1187.75162 C205.174581,1184.15632 206.438836,1179.75445 203.26999,1173.66432 C200.101144,1167.57419 195.763273,1166.05573 188.762259,1169.6543 L179.308262,1174.51334 C174.234825,1177.1192 172.113505,1176.44978 169.486482,1171.40134 L163.693898,1160.26276 C161.070159,1155.21432 161.746618,1153.10155 166.820055,1150.49243 L172.074099,1147.79514 Z" id="Fill-9" fill="#231F20"></path>
                <path d="M81.062701,1100.22491 C81.7466249,1102.275 82.4927238,1103.27545 84.7964677,1102.71127 L129.601669,1092.40173 C131.895595,1091.83755 132.268645,1091.08967 131.457099,1088.66892 L128.204369,1078.96293 C127.392823,1076.53562 126.649997,1076.16496 124.48042,1077.10308 L82.5418093,1095.99022 C80.3722323,1096.92835 80.3722323,1098.17481 81.062701,1100.22491 L81.062701,1100.22491 Z M41.7550707,1100.37251 C38.9441105,1091.97531 40.8617155,1088.4229 47.4391661,1085.17555 L164.975918,1027.34967 C170.126618,1024.78458 172.112943,1025.77519 173.929104,1031.18745 L178.238807,1044.06207 C180.117144,1049.65801 179.246695,1051.40634 173.916015,1054.02718 L154.435635,1063.28378 C152.639108,1064.09726 152.269331,1064.84186 153.015429,1067.0822 L158.391923,1083.12873 C159.141294,1085.36908 159.887393,1085.73974 161.811542,1085.30019 L182.911742,1080.89494 C188.746366,1079.76657 190.487264,1080.63253 192.362328,1086.2252 L196.675303,1099.10309 C198.488192,1104.51863 197.496666,1106.50969 191.848567,1107.57902 L63.3134014,1132.56397 C56.1109293,1133.95148 52.4458822,1132.2786 49.6316496,1123.88468 L41.7550707,1100.37251 Z" id="Fill-11" fill="#231F20"></path>
                <path d="M84.2894075,954.194819 C93.6741245,939.164661 100.159605,935.032106 113.179872,932.770525 L116.677364,932.156714 C141.156519,927.88958 156.385729,934.835161 161.299968,962.965421 C166.217494,991.095681 156.382442,1002.40687 125.102243,1007.85567 L121.213585,1008.53513 C115.582754,1009.51657 113.755118,1008.23315 112.77227,1002.60709 L110.468002,989.415086 C109.481867,983.789034 110.767129,981.967296 116.401246,980.985856 L124.947749,979.492359 C132.721779,978.140006 135.289017,974.49653 134.095793,967.70194 C132.912432,960.913914 129.454385,958.317527 122.462689,959.535302 L118.771257,960.181937 C113.33108,961.127271 110.813149,962.765194 105.655663,971.063128 L88.9373899,997.962484 C79.7433256,1012.9631 73.6128538,1016.82978 60.5958733,1019.09464 L56.3226221,1019.84303 C31.8434671,1024.11017 16.6142574,1017.16787 11.7000186,989.034327 C6.7824926,960.904067 16.6175445,949.596162 47.9010302,944.140796 L51.7831145,943.461337 C57.420519,942.483178 59.2448685,943.763318 60.2277163,949.38937 L62.5319848,962.584661 C63.5148325,968.210713 62.2295701,970.029169 56.5987399,971.017174 L48.0489504,972.504106 C40.2782075,973.85646 37.7109697,977.5065 38.8976187,984.294526 C40.0875548,991.082551 43.542314,993.678938 50.5372975,992.461163 L53.8375622,991.883459 C59.4749666,990.905301 61.9928977,989.27066 66.0919317,982.955302 L84.2894075,954.194819 Z" id="Fill-13" fill="#231F20"></path>
                <path d="M54.4807383,867.746154 C57.0337244,867.677633 57.9984775,866.865174 57.9230036,864.127612 L57.2634275,839.858255 C57.1059168,834.184093 58.6383647,832.57549 64.3448464,832.422134 L77.3361984,832.069742 C83.0426801,831.916386 84.6604464,833.436892 84.8015497,838.72277 L85.4742517,863.38041 C85.553007,866.121236 86.3602494,866.884752 89.1199683,866.809705 L117.852547,866.033138 C120.412096,865.961354 121.373567,865.152158 121.298093,862.414596 L120.572888,835.799223 C120.418659,830.121798 121.951107,828.516458 127.657588,828.363102 L140.645659,828.01071 C146.355422,827.854092 147.969907,829.37786 148.127418,835.052021 L149.489229,884.957885 C149.64674,890.635309 148.114292,892.243913 142.40781,892.400532 L9.35720174,895.989708 C3.64743856,896.143063 2.02967232,894.619295 1.87544308,888.948397 L0.510350276,839.042533 C0.356121041,833.365108 1.88856898,831.759768 7.59833216,831.606412 L20.5896842,831.25402 C26.2961659,831.100665 27.9139321,832.617907 28.0648799,838.298594 L28.7933669,864.913967 C28.8688408,867.654793 29.6760832,868.415046 32.4325206,868.343262 L54.4807383,867.746154 Z" id="Fill-15" fill="#231F20"></path>
                <path d="M68.4932946,687.280392 L26.6298515,670.103233 C21.2708856,667.831574 20.115287,665.589503 21.1399396,660.362387 L24.0862251,645.466749 C25.1894453,639.854996 27.8050921,638.766836 32.3194562,641.275194 L110.049015,682.684474 C113.329212,684.338084 114.448801,684.762171 120.033649,685.873344 L157.415464,693.316232 C163.000312,694.427405 164.237752,696.281552 163.131258,701.893305 L160.764409,713.889372 C159.654641,719.501125 157.811576,720.740511 152.220181,719.629337 L114.841639,712.189737 C109.253517,711.078564 108.061909,711.045689 104.401967,711.318551 L16.8154472,719.829875 C11.6921841,720.418336 9.68871001,718.412964 10.7952039,712.804499 L13.7316684,697.898999 C14.766142,692.678458 16.6877749,691.04786 22.5050519,690.998548 L67.7305341,691.15306 C69.7340082,691.149773 70.1988666,690.837461 70.4247484,689.676975 C70.653904,688.51649 70.3429072,688.049665 68.4932946,687.280392" id="Fill-17" fill="#231F20"></path>
                <path d="M164.850617,602.554205 C167.141785,596.058966 165.22375,592.040447 157.816729,589.412828 L88.7543624,564.950708 C80.6108947,562.067216 76.41151,563.920655 74.1203414,570.415894 C71.832446,576.914413 73.9337748,580.99526 82.0805156,583.882033 L151.146156,608.347433 C158.549903,610.965211 162.559448,609.049444 164.850617,602.554205 M190.773553,611.736111 C181.284842,638.642146 166.847206,643.54966 135.55639,632.468389 L78.1560712,612.133042 C47.0518213,601.117379 38.7119678,588.140023 48.1974056,561.233988 C57.6926628,534.324672 72.3135914,529.489328 103.414568,540.50171 L160.81816,560.833776 C192.105703,571.921608 200.262263,584.826795 190.773553,611.736111" id="Fill-19" fill="#231F20"></path>
                <path d="M112.523847,423.560181 L118.563633,412.511308 C121.304211,407.500125 123.443439,406.870447 128.461259,409.602329 L215.509105,457.00196 C243.371646,472.173253 249.053251,486.022879 235.363507,511.068958 C221.670476,536.108478 206.929191,538.84036 179.066651,523.669067 L92.0188048,476.269436 C86.9976984,473.540834 86.3700601,471.405833 89.1040657,466.39465 L95.1504242,455.339218 C97.8910019,450.334594 100.026944,449.708196 105.04805,452.440078 L196.249482,502.096053 C203.169934,505.867559 207.543685,504.434387 211.132068,497.871967 C214.621868,491.483363 213.553897,486.869008 206.633445,483.097502 L115.432014,433.438247 C110.410907,430.709644 109.783269,428.568085 112.523847,423.560181" id="Fill-21" fill="#231F20"></path>
                <path d="M219.73992,371.345153 C221.912873,373.032078 223.014098,372.898039 224.705265,370.727268 L227.238738,367.474381 C232.918568,360.197068 232.558048,353.952832 225.108392,348.169559 L216.570621,341.546092 C209.278283,335.880511 203.670557,336.998589 197.75475,344.58321 L195.217999,347.839366 C193.523555,350.006868 193.664486,351.108599 195.834161,352.788985 L219.73992,371.345153 Z M251.990081,384.938625 C249.214077,384.029778 248.106297,384.167086 246.297141,386.488242 L245.815355,387.109396 C244.120911,389.273628 244.258564,390.378629 246.434794,392.062284 L282.752277,420.249613 C287.252224,423.741154 287.52753,425.944618 284.02393,430.433275 L276.298968,440.342321 C272.795368,444.834247 270.58964,445.105594 266.089694,441.614052 L161.165238,360.183991 C156.665292,356.69245 156.389986,354.488987 159.893585,350.000329 L175.835128,329.564352 C194.188878,306.029142 210.592542,301.612408 230.460477,317.033381 L241.6366,325.703388 C256.224554,337.028012 260.000182,343.68744 260.583569,357.310335 C260.481968,358.722644 260.668783,359.12149 261.448817,359.723029 C261.910939,360.085914 262.497603,360.288606 263.824973,360.821491 L314.963109,378.638813 C320.082494,380.378045 320.734708,383.369393 317.598183,387.397088 L308.781828,398.695558 C305.399494,403.033831 304.055737,403.481716 299.365699,401.827484 L251.990081,384.938625 Z" id="Fill-23" fill="#231F20"></path>
                <path d="M350.228157,236.05485 C351.938661,238.20381 353.046229,238.331568 355.205658,236.618297 L358.433333,234.050028 C365.665292,228.300907 366.785967,222.132476 360.913892,214.748703 L354.180011,206.287175 C348.425902,199.060644 342.717668,198.828058 335.177688,204.826145 L331.946736,207.391138 C329.790583,209.104409 329.66934,210.211647 331.379844,212.367158 L350.228157,236.05485 Z M378.359722,256.879447 C375.875887,255.339796 374.768319,255.215314 372.464709,257.046515 L371.851943,257.541169 C369.692513,259.25444 369.564717,260.355127 371.281775,262.510638 L399.924525,298.502433 C403.473329,302.967421 403.22429,305.175346 398.761251,308.723094 L388.914384,316.555659 C384.448068,320.103407 382.239486,319.851167 378.693959,315.392731 L295.947507,211.410609 C292.395426,206.948898 292.647742,204.734421 297.110781,201.186672 L317.420559,185.036718 C340.810554,166.436425 357.794352,165.990909 373.457588,185.682061 L382.268978,196.757719 C393.777196,211.217334 395.877643,218.588003 393.226689,231.999344 C392.794148,233.34572 392.889176,233.778133 393.495389,234.544682 C393.865671,235.006577 394.386686,235.34399 395.54996,236.176057 L441.035605,265.557181 C445.603502,268.456311 445.534689,271.525785 441.533682,274.706638 L430.303994,283.636613 C425.994966,287.066431 424.579376,287.181086 420.411251,284.46868 L378.359722,256.879447 Z" id="Fill-25" fill="#231F20"></path>
                <path d="M448.668614,159.708583 C449.940532,161.920042 451.117138,162.381308 453.513076,161.013867 L474.72485,148.909725 C479.68763,146.076701 481.837072,146.66228 484.683275,151.598807 L491.157895,162.836031 C494.000812,167.772559 493.415795,169.91859 488.801396,172.552059 L467.244528,184.855756 C464.851877,186.223197 464.559369,187.292942 465.929885,189.677785 L480.24964,214.537076 C481.524844,216.751807 482.70145,217.213073 485.097388,215.845632 L508.360006,202.570332 C513.322786,199.734037 515.475514,200.316345 518.315145,205.252872 L524.793051,216.490096 C527.635967,221.429895 527.054238,223.569383 522.091458,226.405678 L478.471584,251.300955 C473.512091,254.130707 471.352789,253.551671 468.513159,248.611873 L402.205824,133.511293 C399.362907,128.568223 399.947923,126.425463 404.910703,123.59571 L448.52729,98.7037053 C453.49007,95.864139 455.639512,96.4529891 458.482429,101.386245 L464.960335,112.623469 C467.806538,117.563268 467.221522,119.702757 462.262029,122.539052 L438.996124,135.814351 C436.600186,137.178521 436.307678,138.251537 437.678194,140.63638 L448.668614,159.708583 Z" id="Fill-27" fill="#231F20"></path>
                <path d="M583.941958,120.468743 C600.565476,126.634933 605.91497,132.148425 610.745286,144.418486 L612.046514,147.714773 C621.135396,170.788786 617.382864,187.06687 590.776692,197.506754 C564.173805,207.949918 551.108949,200.602968 539.496474,171.113495 L538.047379,167.45314 C535.957528,162.143001 536.848015,160.099631 542.167935,158.013622 L554.647895,153.113469 C559.96453,151.02418 562.011664,151.91631 564.104801,157.226449 L567.282295,165.285134 C570.164055,172.609124 574.255038,174.386823 580.67903,171.867869 C587.096451,169.345635 588.949715,165.449128 586.35383,158.853273 L584.983598,155.376592 C582.962751,150.250127 580.85647,148.1182 571.685441,144.733355 L541.944491,133.781809 C525.39655,127.802573 520.372363,122.584271 515.542047,110.31421 L513.954943,106.286507 C504.862775,83.2124947 508.618593,66.9344103 535.224765,56.4912467 C561.827652,46.051363 574.889222,53.3983122 586.508269,82.8845059 L587.947506,86.544861 C590.040644,91.8549998 589.150157,93.8950901 583.830237,95.9876587 L571.353562,100.881252 C566.030356,102.97382 563.989793,102.084971 561.896656,96.771552 L558.719162,88.712867 C555.834116,81.388877 551.743134,79.6111776 545.325713,82.1301317 C538.901721,84.6523656 537.048456,88.5554324 539.647627,95.1447275 L540.873278,98.2573412 C542.96313,103.57076 545.075982,105.699407 552.091442,108.444674 L583.941958,120.468743 Z" id="Fill-29" fill="#231F20"></path>
                <path d="M673.68302,46.1413226 C671.011373,46.771922 670.426746,47.7211055 671.057098,50.4077217 L696.013151,156.847646 C697.31958,162.411372 696.150326,164.309739 690.624133,165.620204 L678.412292,168.513735 C672.882832,169.820915 670.995043,168.648395 669.69188,163.084669 L644.739093,56.644744 C644.105475,53.9646965 643.168113,53.3735095 640.496466,54.0106777 L628.673287,56.8122469 C623.137296,58.1259957 621.252772,56.9501906 619.94961,51.3930333 L616.987283,38.7317796 C615.680854,33.1680536 616.846842,31.2762554 622.376301,29.9625066 L679.209213,16.490013 C684.741938,15.1762643 686.629728,16.3487851 687.929624,21.9092267 L690.898483,34.5704804 C692.204912,40.1342064 691.035658,42.0260046 685.502933,43.336469 L673.68302,46.1413226 Z" id="Fill-31" fill="#231F20"></path>
                <path d="M766.861849,41.6112382 C764.700056,41.8181091 763.561577,42.327077 763.594481,44.6978824 L763.489188,90.8300772 C763.515512,93.2041662 764.167011,93.7361198 766.720362,93.4931287 L776.940347,92.5047458 C779.493699,92.2617547 780.026744,91.6148729 779.602282,89.2867552 L770.665553,44.0148803 C770.237801,41.6801952 769.023643,41.4043674 766.861849,41.6112382 L766.861849,41.6112382 Z M775.64393,3.15296603 C784.485237,2.29921341 787.518986,4.98196686 789.206962,12.1403543 L819.031156,140.12444 C820.37364,145.736222 818.948896,147.453578 813.249922,148.005234 L799.686889,149.308849 C793.793781,149.876922 792.283487,148.635697 790.931132,142.83018 L786.308119,121.696518 C785.919852,119.752589 785.274933,119.223919 782.919006,119.447209 L766.012926,121.075906 C763.653709,121.302479 763.120664,121.94936 763.114083,123.926126 L762.627103,145.552337 C762.409937,151.515471 761.166165,153.019389 755.273057,153.587463 L741.706734,154.891077 C736.01105,155.439449 734.28688,154.020906 734.520499,148.258076 L739.281709,16.9476383 C739.564683,9.59879837 742.035774,6.38737503 750.880372,5.53690606 L775.64393,3.15296603 Z" id="Fill-33" fill="#231F20"></path>
                <path d="M913.048995,2.94236148 L925.619324,3.69180735 C931.319097,4.02889435 932.794873,5.69142056 932.453805,11.3728093 L926.560541,109.969122 C924.678107,141.527666 914.557566,152.530448 886.078376,150.831922 C857.595907,149.139942 848.859315,137.0179 850.745028,105.456084 L856.635013,6.86304336 C856.976081,1.18165459 858.642068,-0.294328325 864.335282,0.046031371 L876.905611,0.795477241 C882.602105,1.13256425 884.08116,2.79181777 883.740092,8.47647923 L877.56807,111.772374 C877.102381,119.613738 880.253982,122.948609 887.714847,123.396967 C894.982222,123.828962 898.711015,120.899905 899.176704,113.058541 L905.345446,9.76264616 C905.689794,4.0779847 907.352501,2.60200178 913.048995,2.94236148" id="Fill-35" fill="#231F20"></path>
                <path d="M1007.08073,77.5484426 C1006.47178,80.229617 1007.07086,81.1647583 1009.77328,81.7696574 L1013.81539,82.6688318 C1022.87394,84.686252 1028.40717,81.6977235 1030.4776,72.5065269 L1032.85415,61.9780128 C1034.88179,52.97973 1031.46508,48.4021151 1022.02141,46.2931426 L1017.9793,45.4005077 C1015.27688,44.7988783 1014.33218,45.3939683 1013.72981,48.0686032 L1007.08073,77.5484426 Z M1008.51588,112.449486 C1008.15709,109.55251 1007.56131,108.617368 1004.66797,107.973233 L1003.89773,107.799937 C1001.1986,107.198308 1000.2539,107.793398 999.651535,110.474572 L989.542956,155.269803 C988.292139,160.821796 986.406038,162.008706 980.81686,160.762941 L968.479852,158.019641 C962.893965,156.773876 961.699106,154.897054 962.953215,149.348331 L992.146631,19.9456996 C993.40074,14.3969765 995.283549,13.2035269 1000.87273,14.4492921 L1026.3104,20.1124556 C1055.59927,26.6322869 1066.65255,39.5509699 1061.12591,64.0510184 L1058.01533,77.8329087 C1053.95346,95.8262047 1049.51306,102.074649 1037.3538,108.411376 C1036.02728,108.924722 1035.74749,109.264774 1035.53024,110.219534 C1035.40187,110.795005 1035.46441,111.412983 1035.5467,112.838583 L1041.23463,166.573242 C1041.84687,171.93559 1039.3979,173.805873 1034.39134,172.690897 L1020.32294,169.56177 C1014.92796,168.355242 1013.94048,167.331818 1013.43686,162.394533 L1008.51588,112.449486 Z" id="Fill-37" fill="#231F20"></path>
                <path d="M1144.56475,95.0541878 C1142.56088,94.2421945 1141.31992,94.1698712 1140.25904,96.2902586 L1119.01865,137.254828 C1117.95777,139.378503 1118.28848,140.151047 1120.6558,141.104399 L1130.13818,144.924384 C1132.5055,145.877737 1133.27496,145.548994 1133.97238,143.277385 L1146.82402,98.9366335 C1147.51817,96.6650247 1146.5719,95.8596063 1144.56475,95.0541878 L1144.56475,95.0541878 Z M1169.95369,64.8986631 C1178.16236,68.2058099 1179.61288,71.9797707 1177.81529,79.1200519 L1145.5012,206.586564 C1144.10635,212.191619 1142.06646,213.062786 1136.77846,210.935824 L1124.19532,205.866619 C1118.72396,203.664046 1117.96432,201.865826 1119.42793,196.079962 L1125.03354,175.171957 C1125.58362,173.268539 1125.25619,172.499282 1123.06896,171.618253 L1107.38833,165.299827 C1105.20109,164.422086 1104.43163,164.74754 1103.5181,166.506311 L1093.17458,185.504325 C1090.24736,190.70174 1088.46286,191.470996 1082.98823,189.261849 L1070.41163,184.195931 C1065.12036,182.065681 1064.2494,180.01433 1067.10131,174.997723 L1131.50683,60.460643 C1135.12821,54.0534569 1138.77251,52.3407099 1146.97791,55.6412819 L1169.95369,64.8986631 Z" id="Fill-39" fill="#231F20"></path>
                <path d="M1287.86204,135.043014 C1290.79832,130.178186 1292.95966,129.645278 1297.82512,132.584445 L1307.23233,138.260078 C1312.10106,141.202514 1312.63404,143.353762 1309.69449,148.225129 L1241.14968,261.731242 C1238.20686,266.602609 1236.05533,267.132248 1231.18333,264.19635 L1223.46333,259.527685 C1218.25781,256.385817 1217.45344,254.299956 1218.50958,248.751829 L1231.08196,180.500385 C1231.28469,179.019359 1230.98387,178.381831 1230.31356,177.976429 C1229.47649,177.472945 1228.93697,177.60372 1228.02143,179.114171 L1194.97029,233.853293 C1192.02747,238.72466 1189.87267,239.254299 1185.00394,236.315132 L1175.77003,230.73758 C1170.89803,227.798413 1170.36505,225.640627 1173.30787,220.775799 L1241.84941,107.266416 C1244.78896,102.398319 1246.94376,101.865411 1251.81249,104.807847 L1259.37227,109.365354 C1264.241,112.30779 1265.61432,113.824779 1264.7936,118.601334 L1251.75037,188.395922 C1251.54437,189.873679 1251.84519,190.514477 1252.51877,190.923148 C1253.35584,191.426632 1253.89209,191.292588 1254.80763,189.785406 L1287.86204,135.043014 Z" id="Fill-41" fill="#231F20"></path>
                <path d="M1377.92238,226.207181 C1375.79697,224.455257 1374.68491,224.556581 1372.91813,226.674578 L1303.03958,310.4989 C1299.38756,314.881978 1297.16345,315.087894 1292.75142,311.463112 L1283.02258,303.45852 C1278.61384,299.830469 1278.40327,297.620953 1282.05529,293.241144 L1351.94041,209.407016 C1353.70391,207.298825 1353.59534,206.190798 1351.46664,204.438875 L1342.04378,196.685958 C1337.63175,193.054639 1337.42118,190.85166 1341.07649,186.468582 L1349.384,176.496344 C1353.03931,172.116535 1355.25684,171.913887 1359.66887,175.53867 L1404.97691,212.812809 C1409.38565,216.444128 1409.59622,218.647107 1405.94749,223.026916 L1397.63011,232.999154 C1393.98138,237.382232 1391.75727,237.588148 1387.34853,233.960097 L1377.92238,226.207181 Z" id="Fill-43" fill="#231F20"></path>
                <path d="M1531.68718,353.818347 C1535.02592,358.455491 1534.74059,361.089335 1530.61471,364.793795 L1453.96126,434.19659 C1452.63625,435.395285 1452.55098,435.947013 1453.35123,437.063606 C1454.27283,438.337835 1454.94189,438.59071 1456.48992,437.713857 L1543.5007,382.695401 C1548.35796,379.674033 1550.32906,379.713442 1553.66125,384.350585 L1562.17867,396.176614 C1565.51086,400.817041 1565.5043,403.490295 1560.52569,406.350743 L1450.36669,472.0031 C1442.24612,476.896403 1437.73652,476.022834 1431.75432,467.710787 L1421.9775,454.124483 C1415.9953,445.812437 1416.82179,441.572669 1423.79446,435.080012 L1453.84647,407.076528 C1455.00421,405.999344 1455.09276,405.447616 1454.52537,404.649581 C1453.94814,403.848262 1453.39715,403.759591 1452.00655,404.521501 L1416.08385,424.370576 C1407.7337,428.942037 1403.4504,428.390309 1397.4682,420.078263 L1387.57987,406.327754 C1381.59439,398.015708 1382.1913,393.457383 1389.39355,387.286567 L1486.43698,303.414046 C1490.72356,299.591359 1493.26534,300.432087 1496.60409,305.062662 L1505.11166,316.895259 C1508.45041,321.529118 1507.86006,323.410905 1503.46525,327.069388 L1423.70591,392.156881 C1422.38418,393.355576 1422.40714,394.068225 1423.32874,395.345738 C1424.13555,396.46233 1424.68326,396.554285 1426.23784,395.677432 L1516.35124,344.974278 C1521.16258,342.228774 1523.75027,342.793638 1527.08902,347.427497 L1531.68718,353.818347 Z" id="Fill-45" fill="#231F20"></path>
                <path d="M1556.35921,501.448226 C1554.05836,502.547059 1553.51256,503.675326 1554.68913,506.154242 L1565.14425,528.127642 C1567.5889,533.268614 1566.84047,535.35836 1561.70932,537.804572 L1550.02208,543.373958 C1544.88439,545.8169 1542.79598,545.074534 1540.51475,540.290029 L1529.89622,517.963432 C1528.71965,515.481246 1527.67381,515.111697 1525.19648,516.292289 L1499.33812,528.605112 C1497.03727,529.700675 1496.49148,530.828942 1497.66804,533.311128 L1509.12978,557.413519 C1511.57443,562.55122 1510.82927,564.644236 1505.69486,567.087178 L1494.00761,572.653294 C1488.86993,575.099506 1486.78152,574.36041 1484.33687,569.219439 L1462.84488,524.033179 C1460.40023,518.892208 1461.14213,516.799192 1466.27981,514.356249 L1585.98912,457.344448 C1591.13007,454.901506 1593.21848,455.640602 1595.6664,460.778303 L1617.15512,505.971103 C1619.59977,511.105533 1618.85787,513.20182 1613.72019,515.648033 L1602.03294,521.210878 C1596.89853,523.65709 1594.80685,522.914724 1592.3622,517.773753 L1580.90046,493.674632 C1579.72063,491.195716 1578.67479,490.826168 1576.19746,492.000219 L1556.35921,501.448226 Z" id="Fill-47" fill="#231F20"></path>
                <path d="M1597.49535,605.142883 C1594.86376,605.937294 1594.34071,606.918819 1595.13182,609.558103 L1596.32176,613.517028 C1599.09392,622.757803 1603.53003,625.942013 1611.79421,623.440602 L1617.23719,621.792692 C1625.50136,619.294564 1627.44645,614.183414 1624.67756,604.939356 L1623.48763,600.980431 C1622.69651,598.341148 1621.71907,597.815917 1619.08747,598.610328 L1597.49535,605.142883 Z M1552.17314,642.506471 L1562.87604,639.269738 C1571.13694,636.77161 1573.0853,631.653895 1570.31641,622.416403 L1568.84207,617.515345 C1568.05095,614.872779 1567.07351,614.347549 1564.44518,615.14196 L1537.59315,623.26662 C1534.96156,624.057748 1534.43851,625.042556 1535.22962,627.678556 L1536.69743,632.582897 C1539.46959,641.823672 1543.90897,645.007882 1552.17314,642.506471 L1552.17314,642.506471 Z M1507.06015,604.118684 L1634.00418,565.7112 C1639.45043,564.063289 1641.4086,565.117033 1643.04966,570.585996 L1651.08174,597.362906 C1659.28707,624.704438 1652.87645,640.221718 1630.1565,647.092391 L1619.264,650.388212 C1609.49933,653.345917 1601.58821,652.242933 1593.6019,647.456769 C1592.86637,647.066129 1592.62446,646.931539 1592.24852,647.046433 C1591.8693,647.158044 1591.74181,647.400964 1591.34626,648.139569 C1587.6751,657.065206 1582.55576,662.521038 1572.60148,665.531266 L1554.38303,671.046186 C1532.59803,677.63783 1518.5607,667.694559 1509.95981,639.026819 L1502.20887,613.195324 C1500.56781,607.726361 1501.6139,605.763312 1507.06015,604.118684 L1507.06015,604.118684 Z" id="Fill-49" fill="#231F20"></path>
                <path d="M1607.92774,759.370687 C1598.01388,774.061342 1591.38711,777.954776 1578.29792,779.760332 L1574.78073,780.239624 C1550.167,783.634069 1535.20088,776.152504 1531.29253,747.867657 C1527.38418,719.576246 1537.61361,708.624731 1569.06777,704.294681 L1572.97283,703.753015 C1578.63977,702.971701 1580.41809,704.314378 1581.19713,709.973974 L1583.03132,723.239882 C1583.81365,728.896194 1582.46595,730.672204 1576.799,731.4568 L1568.20655,732.638618 C1560.39314,733.718669 1557.69773,737.270689 1558.64112,744.098971 C1559.58451,750.927253 1562.94721,753.645435 1569.97829,752.677 L1573.68942,752.164879 C1579.15913,751.406546 1581.73292,749.863617 1587.17963,741.758314 L1604.84774,715.462862 C1614.57095,700.801752 1620.83286,697.157813 1633.92205,695.352258 L1638.21827,694.758066 C1662.832,691.370187 1677.80469,698.848469 1681.70647,727.139881 C1685.6181,755.42801 1675.38539,766.379525 1643.93452,770.712858 L1640.02946,771.251241 C1634.36252,772.032554 1632.5842,770.686595 1631.80516,765.026999 L1629.96768,751.767657 C1629.18864,746.104779 1630.53634,744.328769 1636.20329,743.547456 L1644.79574,742.362355 C1652.61244,741.28887 1655.30456,737.733567 1654.35788,730.908568 C1653.41777,724.077003 1650.05508,721.358821 1643.02728,722.330538 L1639.70075,722.783569 C1634.03709,723.568164 1631.4633,725.114376 1627.14078,731.276245 L1607.92774,759.370687 Z" id="Fill-51" fill="#231F20"></path>
                <g id="Group-55" transform="translate(1539.500000, 818.000000)">
                    <mask id="mask-2" fill="white">
                        <use xlink:href="#path-1"></use>
                    </mask>
                    <g id="Clip-54"></g>
                    <path d="M8.30685217,29.40006 C2.59839565,29.47926 0.999765217,27.91836 0.920982609,22.17636 L0.743721739,9.50766 C0.66493913,3.76566 2.21761304,2.16186 7.92935217,2.07936 L141.0457,0.20166 C146.760722,0.12576 148.35607,1.68666 148.434852,7.42536 L148.612113,20.09406 C148.694178,25.83606 147.138222,27.43986 141.433048,27.52236 L8.30685217,29.40006 Z" id="Fill-53" fill="#231F20" mask="url(#mask-2)"></path>
                </g>
                <path d="M1654.56832,940.621774 C1654.83624,937.892466 1654.1305,937.037108 1651.39901,936.769401 L1543.126,926.172109 C1537.46697,925.620371 1536.05875,923.909656 1536.61093,918.255155 L1537.83618,905.780647 C1538.38836,900.126147 1540.10371,898.715786 1545.76274,899.270789 L1654.03901,909.868081 C1656.77051,910.135788 1657.62655,909.430608 1657.89447,906.704564 L1659.07725,894.618558 C1659.6327,888.964058 1661.34478,887.556962 1667.00707,888.111965 L1679.87711,889.368883 C1685.53614,889.923886 1686.9411,891.637866 1686.38892,897.292367 L1680.69722,955.381588 C1680.14177,961.032824 1678.42968,962.443185 1672.76739,961.888182 L1659.89408,960.627999 C1654.23505,960.072996 1652.8301,958.362281 1653.38555,952.70778 L1654.56832,940.621774 Z" id="Fill-56" fill="#231F20"></path>
                <path d="M1613.78575,1023.18005 C1611.2958,1022.58725 1610.1655,1023.12735 1609.52991,1025.8246 L1603.91771,1049.66839 C1602.60721,1055.24401 1600.71354,1056.42303 1595.16359,1055.1024 L1582.54022,1052.09887 C1576.99354,1050.77824 1575.82392,1048.87799 1577.04269,1043.68768 L1582.74335,1019.45528 C1583.37894,1016.76133 1582.79577,1015.81285 1580.11908,1015.17394 L1552.18583,1008.53456 C1549.69589,1007.94176 1548.56231,1008.48846 1547.92672,1011.17582 L1541.77393,1037.33153 C1540.46016,1042.90716 1538.56649,1044.08618 1533.01981,1042.76555 L1520.39317,1039.76202 C1514.84649,1038.44468 1513.67688,1036.54113 1514.99065,1030.96221 L1526.52958,981.924368 C1527.84335,976.345449 1529.73374,975.17302 1535.27714,976.493649 L1664.60683,1007.24028 C1670.15351,1008.56091 1671.32312,1010.46117 1670.00935,1016.03679 L1658.47698,1065.07464 C1657.1632,1070.65026 1655.26953,1071.82599 1649.72286,1070.50865 L1637.08966,1067.50512 C1631.54298,1066.18779 1630.37664,1064.28423 1631.69042,1058.70861 L1637.84648,1032.5529 C1638.47879,1029.86224 1637.89234,1028.91046 1635.21565,1028.27485 L1613.78575,1023.18005 Z" id="Fill-58" fill="#231F20"></path>
                <path d="M1566.35387,1202.51546 C1567.31342,1200.58141 1567.49027,1199.35095 1565.46636,1198.12376 L1526.49451,1173.6945 C1524.4706,1172.47058 1523.68134,1172.73565 1522.54165,1175.02313 L1517.98948,1184.16324 C1516.85308,1186.44745 1517.11507,1187.23613 1519.31583,1188.10989 L1562.31258,1204.45278 C1564.51335,1205.32654 1565.38776,1204.44951 1566.35387,1202.51546 L1566.35387,1202.51546 Z M1594.25639,1230.21068 C1590.31336,1238.1236 1586.4522,1239.26898 1579.50604,1236.91277 L1455.52974,1194.54363 C1450.08023,1192.71103 1449.36956,1190.60681 1451.91092,1185.50824 L1457.95319,1173.38034 C1460.5797,1168.10506 1462.42677,1167.48982 1468.04985,1169.41079 L1488.36433,1176.66266 C1490.2114,1177.36298 1491.00066,1177.09463 1492.05192,1174.98714 L1499.58102,1159.87143 C1500.63227,1157.76066 1500.367,1156.97199 1498.69351,1155.92151 L1480.66166,1144.09795 C1475.73614,1140.77308 1475.11718,1138.92739 1477.74041,1133.65538 L1483.78596,1121.52747 C1486.32404,1116.43218 1488.42983,1115.72532 1493.1785,1118.9651 L1601.74619,1192.2627 C1607.81467,1196.38605 1609.22944,1200.15598 1605.28968,1208.06563 L1594.25639,1230.21068 Z" id="Fill-60" fill="#231F20"></path>
                <path d="M1449.6107,1293.65017 C1449.0207,1294.43492 1448.98464,1295.14447 1450.01059,1296.3968 L1505.76876,1358.96425 C1508.60403,1362.05748 1508.33525,1364.05859 1505.39837,1367.98561 L1493.98189,1383.23591 C1490.56973,1387.79727 1488.37363,1388.11771 1483.80441,1384.71386 L1377.27028,1305.38872 C1372.70107,1301.98814 1372.37985,1299.79084 1375.79201,1295.23275 L1381.20361,1287.99998 C1384.61249,1283.44516 1386.81515,1283.12145 1391.38437,1286.5253 L1442.44221,1324.54316 C1443.86149,1325.5993 1444.41215,1325.52083 1445.11687,1324.57913 C1445.58887,1323.95133 1445.74293,1323.08483 1444.7596,1322.10717 L1401.10296,1272.22323 C1397.91369,1268.61992 1397.78585,1265.83406 1401.19801,1261.27597 L1404.37417,1257.03178 C1407.90106,1252.31674 1410.61833,1251.6399 1414.9876,1253.67044 L1475.46248,1281.07456 C1476.79981,1281.58138 1477.35048,1281.5029 1477.94048,1280.71815 C1478.64192,1279.77318 1478.56325,1279.22386 1477.14398,1278.17098 L1426.08613,1240.14985 C1421.5202,1236.74927 1421.19242,1234.55197 1424.60786,1229.99061 L1430.01618,1222.7611 C1433.42834,1218.20301 1435.62773,1217.88257 1440.20022,1221.28643 L1546.73107,1300.60829 C1551.30028,1304.01214 1551.61823,1306.20617 1548.20934,1310.76426 L1538.44814,1323.814 C1534.32798,1329.31706 1531.54188,1330.42225 1525.20267,1327.41404 L1452.36403,1293.25126 C1450.86609,1292.63 1450.2007,1292.86542 1449.6107,1293.65017" id="Fill-62" fill="#231F20"></path>
                <path d="M1395.83561,1431.66093 C1397.40881,1430.182 1398.00081,1429.08673 1396.53227,1427.2274 L1368.54501,1390.69668 C1367.07974,1388.83735 1366.24572,1388.8144 1364.38797,1390.56223 L1356.94389,1397.56341 C1355.08287,1399.31124 1355.05343,1400.14417 1356.80979,1401.73132 L1391.38421,1432.0774 C1393.13403,1433.66127 1394.26568,1433.13987 1395.83561,1431.66093 L1395.83561,1431.66093 Z M1412.32314,1467.40464 C1405.88316,1473.46467 1401.86676,1473.19577 1396.18231,1468.55893 L1294.85319,1385.54172 C1290.3887,1381.92144 1290.45739,1379.69155 1294.61116,1375.79254 L1304.48536,1366.50573 C1308.78304,1362.46571 1310.72256,1362.52802 1315.32441,1366.29586 L1331.81521,1380.19 C1333.3001,1381.48858 1334.13413,1381.51809 1335.85124,1379.9047 L1348.1621,1368.32899 C1349.87921,1366.70905 1349.90537,1365.87612 1348.70503,1364.30864 L1335.93627,1346.91556 C1332.47916,1342.07213 1332.5413,1340.12426 1336.83571,1336.08751 L1346.70991,1326.80071 C1350.86368,1322.89842 1353.08121,1322.97056 1356.40095,1327.66971 L1432.54252,1434.36958 C1436.78787,1440.35092 1436.80095,1444.39422 1430.3577,1450.44769 L1412.32314,1467.40464 Z" id="Fill-64" fill="#231F20"></path>
                <path d="M1254.63336,1437.81682 L1232.5862,1452.97293 C1227.88386,1456.2048 1225.69359,1455.80939 1222.44267,1451.12989 L1215.61245,1441.28724 C1212.3681,1436.611 1212.76543,1434.4281 1217.46778,1431.1995 L1261.23372,1401.10622 C1265.93278,1397.87109 1268.12633,1398.26976 1271.37397,1402.94927 L1277.64595,1411.98477 C1281.23181,1417.14464 1282.58472,1419.78504 1283.95076,1426.2357 L1301.73889,1512.90787 C1302.74043,1517.45666 1304.28708,1518.29976 1307.20635,1516.29659 L1329.40784,1501.02937 C1334.11018,1497.79424 1336.30373,1498.19618 1339.55137,1502.87242 L1346.38488,1512.70853 C1349.63251,1517.38804 1349.23518,1519.57094 1344.53284,1522.80607 L1300.76689,1552.89935 C1296.06455,1556.12795 1293.871,1555.72927 1290.62665,1551.0465 L1284.35467,1542.01754 C1280.7688,1536.85766 1279.41261,1534.214 1278.04985,1527.76334 L1260.09754,1441.20554 C1259.08942,1436.65675 1257.54934,1435.81039 1254.63336,1437.81682" id="Fill-66" fill="#231F20"></path>
                <path d="M1163.06368,1470.30451 C1160.37142,1465.28017 1161.0198,1463.14933 1166.07189,1460.47186 L1177.226,1454.55722 C1182.2781,1451.87648 1184.41413,1452.5213 1187.11297,1457.55218 L1249.93669,1574.69619 C1252.62894,1579.7238 1251.98056,1581.8481 1246.92188,1584.52884 L1235.77107,1590.44348 C1230.72226,1593.12422 1228.57965,1592.47613 1225.88739,1587.45179 L1163.06368,1470.30451 Z" id="Fill-68" fill="#231F20"></path>
                <path d="M1122.9155,1631.82067 C1124.9062,1637.17685 1123.97984,1639.19854 1118.62204,1641.1907 L1108.27766,1645.03389 C1102.91986,1647.02604 1100.89304,1646.09725 1098.89906,1640.74435 L1052.46923,1515.98019 C1050.47196,1510.63058 1051.40161,1508.60232 1056.7594,1506.61344 L1065.25763,1503.45619 C1070.98334,1501.32619 1073.12843,1502.00227 1076.8306,1506.29837 L1122.65928,1558.80992 C1123.69076,1559.89954 1124.38389,1560.06035 1125.12301,1559.78467 C1126.04608,1559.44334 1126.27932,1558.93792 1125.66174,1557.27396 L1103.27136,1497.10557 C1101.27409,1491.75267 1102.20374,1489.7277 1107.56153,1487.7421 L1117.72196,1483.96455 C1123.07975,1481.97568 1125.10987,1482.9012 1127.09728,1488.25737 L1173.53367,1613.01825 C1175.52765,1618.37115 1174.59472,1620.39941 1169.24021,1622.38828 L1160.92923,1625.47334 C1155.56486,1627.46877 1153.51176,1627.59677 1150.27277,1623.97019 L1103.52759,1570.1196 C1102.48953,1569.03326 1101.79969,1568.87245 1101.06057,1569.14485 C1100.13749,1569.48946 1099.90426,1569.99488 1100.52512,1571.65556 L1122.9155,1631.82067 Z" id="Fill-70" fill="#231F20"></path>
                <path d="M980.690348,1583.12604 L983.004743,1582.66903 C988.607152,1581.57747 990.452767,1582.82356 991.547679,1588.43592 L994.029261,1601.21578 C995.124173,1606.83471 993.881743,1608.68248 988.28589,1609.78063 L963.765106,1614.58417 C958.169253,1615.67903 956.323638,1614.42964 955.228726,1608.81729 L948.52157,1574.35406 C942.447103,1543.18198 949.488633,1529.94181 977.48101,1524.45768 C1005.47339,1518.97355 1016.96341,1528.58393 1023.03459,1559.75931 L1035.48184,1623.65206 C1041.54975,1654.82414 1034.50822,1668.06431 1006.51585,1673.54844 C978.523471,1679.03257 967.416998,1669.34657 961.349087,1638.17119 L961.158953,1637.20128 C960.064041,1631.58892 961.306471,1629.73786 966.905602,1628.64301 L979.257783,1626.21987 C984.860192,1625.12172 986.705807,1626.37111 987.800719,1631.98675 L988.892353,1637.59911 C990.400316,1645.34528 994.284959,1647.8013 1001.04129,1646.4763 C1007.79762,1645.15129 1010.47917,1641.4163 1008.96793,1633.67013 L994.7144,1560.47606 C993.209716,1552.73318 989.13166,1550.31661 981.988507,1551.71723 C974.651941,1553.15402 971.973668,1556.8923 973.481631,1564.63847 L976.533616,1580.32151 C977.064681,1583.03398 977.985849,1583.65867 980.690348,1583.12604" id="Fill-72" fill="#231F20"></path>
                <path d="M875.399592,1565.64154 L850.77893,1566.80516 C845.06741,1567.07394 843.417707,1565.57599 843.148234,1559.87918 L842.530417,1546.9155 C842.257657,1541.2187 843.759478,1539.56996 849.470999,1539.30119 L897.532555,1537.02967 C903.244075,1536.76089 904.893778,1538.25885 905.166537,1543.95565 L911.469584,1676.76206 C911.742344,1682.45887 910.240523,1684.1076 904.525716,1684.37638 L891.919622,1684.96966 C886.208102,1685.24172 884.558399,1683.74377 884.288926,1678.04696 L879.093348,1568.61778 C878.981616,1566.26105 878.156764,1565.51371 875.399592,1565.64154" id="Fill-74" fill="#231F20"></path>
                <path d="M782.642892,1632.72326 L770.623509,1676.31329 C769.010191,1681.90234 766.920435,1683.31924 761.617186,1682.92002 L746.476311,1681.77473 C740.775483,1681.34278 739.382312,1678.87549 741.327494,1674.1045 L773.09113,1592.02919 C774.343012,1588.58021 774.628875,1587.41855 775.059312,1581.74442 L777.95737,1543.7598 C778.391093,1538.08567 780.08327,1536.63932 785.784098,1537.07126 L797.974342,1537.99078 C803.671884,1538.42272 805.124199,1540.10467 804.693762,1545.78862 L801.79899,1583.76342 C801.365267,1589.44082 801.470412,1590.6352 802.183426,1594.23144 L821.142377,1680.13531 C822.341687,1685.14845 820.590366,1687.37687 814.889537,1686.9482 L799.751949,1685.80617 C794.445414,1685.40368 792.59552,1683.68574 791.852934,1677.91998 L786.575971,1633.02104 C786.329537,1631.03149 785.968102,1630.60937 784.785221,1630.52102 C783.605626,1630.43266 783.185046,1630.79589 782.642892,1632.72326" id="Fill-76" fill="#231F20"></path>
            </g>
            <g id="badge-02" transform="translate(258.000000, 257.000000)">
                <circle id="Oval" fill="#DFFC52" fill-rule="nonzero" cx="586.5" cy="586.5" r="586.5"></circle>
                <ellipse id="Oval" fill="#000000" fill-rule="nonzero" cx="459.5" cy="447.5" rx="57.5" ry="143.5"></ellipse>
                <ellipse id="Oval" fill="#000000" fill-rule="nonzero" cx="713.5" cy="447.5" rx="57.5" ry="143.5"></ellipse>
                <path d="M843.46831,712 C776.397557,779.84196 685.970483,821.627581 585.866927,821.627581 C487.514376,821.627581 398.502713,781.290537 331.80612,715.536135 L311,747.325263 C383.809524,817.989733 480.178859,861 585.866927,861 C694.124067,861 792.603799,815.873465 866,742.123182 L843.46831,712 Z" id="Path" fill="#000000"></path>
                <path d="M296.578818,666.892355 L335.325481,666.892355 C336.43005,666.892355 337.325481,667.787786 337.325481,668.892355 L337.325481,797.132179 C337.325481,798.236749 336.43005,799.132179 335.325481,799.132179 L296.578818,799.132179 C295.474248,799.132179 294.578818,798.236749 294.578818,797.132179 L294.578818,668.892355 C294.578818,667.787786 295.474248,666.892355 296.578818,666.892355 Z" id="Rectangle" fill="#000000" fill-rule="nonzero" transform="translate(315.952149, 733.012267) rotate(36.756818) translate(-315.952149, -733.012267) "></path>
                <path d="M838.477573,666.892355 L877.224236,666.892355 C878.328806,666.892355 879.224236,667.787786 879.224236,668.892355 L879.224236,797.132179 C879.224236,798.236749 878.328806,799.132179 877.224236,799.132179 L838.477573,799.132179 C837.373003,799.132179 836.477573,798.236749 836.477573,797.132179 L836.477573,668.892355 C836.477573,667.787786 837.373003,666.892355 838.477573,666.892355 Z" id="Rectangle" fill="#000000" fill-rule="nonzero" transform="translate(857.850905, 733.012267) scale(-1, 1) rotate(36.756818) translate(-857.850905, -733.012267) "></path>
            </g>
        </g>
    </g>
</svg>