<svg width="1418" height="1418" viewBox="0 0 1418 1418" fill="none" xmlns="http://www.w3.org/2000/svg">
<path d="M680.451 18.3898C692.295 -5.00448 725.705 -5.00441 737.55 18.3899L797.244 136.296C806.622 154.819 830.885 159.646 846.638 146.121L946.909 60.034C966.804 42.9531 997.671 55.7387 999.661 81.8849L1009.69 213.659C1011.27 234.362 1031.84 248.106 1051.57 241.639L1177.15 200.477C1202.06 192.31 1225.69 215.935 1217.52 240.852L1176.36 366.434C1169.89 386.164 1183.64 406.733 1204.34 408.309L1336.12 418.339C1362.26 420.329 1375.05 451.196 1357.97 471.091L1271.88 571.362C1258.35 587.115 1263.18 611.378 1281.7 620.756L1399.61 680.45C1423 692.295 1423 725.705 1399.61 737.55L1281.7 797.244C1263.18 806.622 1258.35 830.885 1271.88 846.638L1357.97 946.909C1375.05 966.804 1362.26 997.671 1336.12 999.661L1204.34 1009.69C1183.64 1011.27 1169.89 1031.84 1176.36 1051.57L1217.52 1177.15C1225.69 1202.06 1202.06 1225.69 1177.15 1217.52L1051.57 1176.36C1031.84 1169.89 1011.27 1183.64 1009.69 1204.34L999.661 1336.12C997.671 1362.26 966.804 1375.05 946.909 1357.97L846.638 1271.88C830.885 1258.35 806.622 1263.18 797.244 1281.7L737.55 1399.61C725.705 1423 692.295 1423 680.45 1399.61L620.756 1281.7C611.378 1263.18 587.115 1258.35 571.362 1271.88L471.091 1357.97C451.196 1375.05 420.329 1362.26 418.339 1336.12L408.309 1204.34C406.733 1183.64 386.164 1169.89 366.434 1176.36L240.853 1217.52C215.935 1225.69 192.31 1202.06 200.477 1177.15L241.639 1051.57C248.106 1031.84 234.362 1011.27 213.659 1009.69L81.8848 999.661C55.7387 997.671 42.9531 966.804 60.034 946.909L146.121 846.638C159.646 830.885 154.819 806.622 136.295 797.244L18.3898 737.549C-5.00448 725.705 -5.00441 692.295 18.3899 680.45L136.296 620.756C154.819 611.378 159.646 587.115 146.121 571.362L60.034 471.091C42.9531 451.196 55.7388 420.329 81.8849 418.339L213.659 408.309C234.362 406.733 248.106 386.164 241.639 366.434L200.477 240.853C192.31 215.935 215.935 192.31 240.852 200.477L366.434 241.639C386.164 248.106 406.733 234.362 408.309 213.659L418.339 81.8849C420.329 55.7388 451.196 42.9531 471.091 60.034L571.362 146.121C587.115 159.646 611.378 154.819 620.756 136.295L680.451 18.3898Z" fill="#FF6087"/>
</svg>
