<svg width="544" height="544" viewBox="0 0 544 544" fill="none" xmlns="http://www.w3.org/2000/svg">
<path d="M316.83 114.066L403.819 43.6831L386.36 154.209L385.716 158.284L389.791 157.64L500.317 140.181L429.934 227.17L427.339 230.377L431.19 231.857L535.638 272L431.19 312.143L427.339 313.623L429.934 316.83L500.317 403.819L389.791 386.36L385.716 385.716L386.36 389.791L403.819 500.317L316.83 429.934L313.623 427.339L312.143 431.19L272 535.638L231.857 431.19L230.377 427.339L227.17 429.934L140.181 500.317L157.64 389.791L158.284 385.716L154.209 386.36L43.6831 403.819L114.066 316.83L116.661 313.623L112.81 312.143L8.36231 272L112.81 231.857L116.661 230.377L114.066 227.17L43.6831 140.181L154.209 157.64L158.284 158.284L157.64 154.209L140.181 43.6831L227.17 114.066L230.377 116.661L231.857 112.81L272 8.36231L312.143 112.81L313.623 116.661L316.83 114.066Z" fill="#069EDF" stroke="black" stroke-width="6"/>
</svg>
