<?xml version="1.0" encoding="UTF-8"?>
<svg width="30px" height="25px" viewBox="0 0 30 25" version="1.1" xmlns="http://www.w3.org/2000/svg" xmlns:xlink="http://www.w3.org/1999/xlink">
    <!-- Generator: Sketch 63.1 (92452) - https://sketch.com -->
    <title>icon-forms_24-twitter-black</title>
    <desc>Created with Sketch.</desc>
    <g id="Page-1" stroke="none" stroke-width="1" fill="none" fill-rule="evenodd">
        <g id="icon-forms_24-twitter-black" fill="#000000" fill-rule="nonzero">
            <path d="M30,2.90135665 C28.879898,3.41036678 27.6896646,3.74252274 26.4705882,3.8863022 C27.7591156,3.09420562 28.7190089,1.85271531 29.1705882,0.39422252 C27.9653076,1.12675405 26.6467633,1.64744268 25.2705882,1.9343192 C23.5365406,0.0866136793 20.8677474,-0.501752139 18.5345429,0.449281335 C16.2013384,1.40031481 14.6751168,3.69860335 14.6823529,6.25017153 C14.6808641,6.73824062 14.7341486,7.22489439 14.8411765,7.7007277 C9.85057896,7.45908436 5.20314769,5.05207243 2.08235294,1.09263846 C0.459014157,3.98503712 1.28696835,7.65702936 3.98823529,9.5452621 C3.00799545,9.51124231 2.05080705,9.23459271 1.2,8.73939756 L1.2,8.88266237 C1.18103351,11.879261 3.24922934,14.472765 6.14117647,15.0788653 C5.61277564,15.2301874 5.0666765,15.3084951 4.51764706,15.3116706 C4.13179019,15.315317 3.7468326,15.2732468 3.37058824,15.1863139 C4.138455,17.766976 6.45034199,19.5572195 9.10588235,19.6275229 C6.93710198,21.386563 4.24107064,22.340657 1.46470588,22.3316462 C0.973586071,22.2994501 0.484601354,22.2396648 0,22.1525652 C2.80508929,24.0178951 6.08748862,25.0078421 9.44117647,25 C14.1256679,24.9955733 18.6134093,23.0880072 21.9025553,19.7031008 C25.1917013,16.3181945 27.0083885,11.7377845 26.9470588,6.98440367 C26.9470588,6.71578215 26.9470588,6.44716064 26.9470588,6.17853912 C28.1462753,5.27634979 29.1796821,4.16703833 30,2.90135665" id="Path"></path>
        </g>
    </g>
</svg>