<svg width="221" height="221" viewBox="0 0 221 221" fill="none" xmlns="http://www.w3.org/2000/svg">
<path fill-rule="evenodd" clip-rule="evenodd" d="M48.0513 115H10.0989C11.9791 157.668 40.464 193.424 79.3713 206.086C61.3045 187.655 48.94 153.918 48.0513 115ZM0.134493 105H0V110.5V115H0.0899601C2.45076 173.941 50.9798 221 110.5 221C110.606 221 110.712 221 110.818 221C110.879 221 110.939 221 111 221C111.221 221 111.442 220.998 111.663 220.994C172.155 220.37 221 171.139 221 110.5C221 49.8607 172.155 0.629848 111.663 0.00599539C111.442 0.00200172 111.221 0 111 0C110.939 0 110.879 0.00014977 110.818 0.000449109C110.712 0.00014977 110.606 0 110.5 0C51.3168 0 3.00065 46.5276 0.134493 105ZM10.1479 105C12.4253 62.7741 40.7683 27.4769 79.3713 14.9138C61.4594 33.1868 49.1525 66.5049 48.0767 105H10.1479ZM58.054 115H106V210.516C95.2701 208.445 84.2706 199.698 75.1395 183.682C65.2849 166.398 58.7094 142.26 58.054 115ZM106 105H58.0807C58.8709 78.1496 65.4056 54.3906 75.1395 37.3176C84.2706 21.302 95.2701 12.5551 106 10.4841V105ZM116 115V210.516C126.73 208.445 137.729 199.698 146.86 183.682C156.715 166.398 163.291 142.26 163.946 115H116ZM163.919 105H116V10.4841C126.73 12.5551 137.729 21.302 146.86 37.3176C156.594 54.3906 163.129 78.1496 163.919 105ZM173.949 115C173.068 153.572 160.914 187.056 143.108 205.592C181.256 192.513 209.045 157.125 210.901 115H173.949ZM210.852 105H173.923C172.857 66.8495 160.76 33.7838 143.108 15.4083C180.954 28.3831 208.604 63.3155 210.852 105Z" fill="black"/>
</svg>
