<?xml version="1.0" encoding="UTF-8"?>
<svg width="256px" height="256px" viewBox="0 0 256 256" version="1.1" xmlns="http://www.w3.org/2000/svg" xmlns:xlink="http://www.w3.org/1999/xlink">
    <title>Artboard Copy</title>
    <g id="Artboard-Copy" stroke="none" stroke-width="1" fill="none" fill-rule="evenodd">
        <rect fill="#FFCA0E" x="0" y="0" width="256" height="256"></rect>
        <path d="M131.984043,212 C170.77305,212 194,193.160167 194,161.760446 C194,144.083565 184.47695,131.756267 167.521277,124.545961 C181.457447,116.172702 189.12234,104.775766 189.12234,90.1225627 C189.12234,61.0487465 166.359929,45 129.893617,45 L63,45 L63,212 L131.984043,212 Z M126.659794,109 L103,109 L103,80 L126.659794,80 C141.273196,80 148,85.6129032 148,94.266129 C148,103.387097 141.273196,109 126.659794,109 Z M128.813953,177 L103,177 L103,143 L128.813953,143 C145.325581,143 153,149.707483 153,159.884354 C153,170.52381 145.325581,177 128.813953,177 Z" id="B" fill="#000000" fill-rule="nonzero"></path>
    </g>
</svg>