<?xml version="1.0" encoding="UTF-8"?>
<svg width="1190px" height="20px" viewBox="0 0 1190 20" version="1.1" xmlns="http://www.w3.org/2000/svg" xmlns:xlink="http://www.w3.org/1999/xlink">
    <title>Artboard Copy</title>
    <g id="Artboard-Copy" stroke="none" stroke-width="1" fill="none" fill-rule="evenodd">
        <path d="M299.721511,2.11323476 C309.46506,2.01915449 319.227238,1.97676047 328.994297,2.26207116 C334.190441,2.41393746 339.398186,2.75543733 344.580723,3.11767085 L353.024782,3.7141549 L365.467071,4.61104689 C371.639787,5.04336102 377.803567,5.42223824 383.977019,5.81649538 C390.359546,6.22546907 396.721404,6.67218551 403.093302,7.11525338 C414.931183,7.93381166 426.782708,8.56224212 438.656004,9.09584435 C444.453159,9.35854297 450.251049,9.58318461 456.071815,9.65591253 C462.221399,9.73763101 468.361973,9.76971829 474.504018,9.7256916 C480.855505,9.67735297 487.196952,9.63266292 493.538252,9.59558427 C499.719942,9.56360314 505.903544,9.43267384 512.067508,9.28620751 C523.797008,9.00668202 535.573324,8.88397577 547.295138,8.4863165 C554.415048,8.2382673 561.515335,7.90898064 568.611821,7.55008887 L572.869382,7.33161425 L585.977479,6.64218612 L588.866831,6.49379741 L600.432302,5.91305918 C604.878935,5.69383748 609.294994,5.40591487 613.705126,5.0945095 L621.013772,4.56886537 C625.018603,4.28349407 629.031647,4.00842368 633.044276,3.75476035 C635.511686,3.60179249 637.982038,3.46166205 640.454797,3.32900056 L644.165675,3.13493898 L651.596665,2.76432063 C653.522614,2.66905618 655.468128,2.59313445 657.403602,2.52086131 C669.443606,2.16628678 681.567571,2.10997081 693.708159,2.22522552 C706.426947,2.34198162 719.163829,2.55419443 731.908912,2.85790112 C751.533112,3.32419651 771.096175,4.45737326 790.636654,5.71890131 L794.823568,5.99099705 L807.381005,6.81908356 C818.99054,7.58835977 830.66289,8.20254503 842.337409,8.18863287 C845.642029,8.18489505 848.945408,8.17193355 852.248039,8.15372651 L857.201484,8.12297907 L872.058752,8.01336296 L879.487936,7.96724321 C892.260087,7.90211135 905.050552,7.92101911 917.840944,7.94373256 C923.832316,7.95824029 929.853293,7.98844217 935.836684,7.90003891 C942.378489,7.80521142 948.901465,7.65298422 955.43426,7.50852553 C961.169152,7.38194305 966.893784,7.27042626 972.636068,7.27720036 C978.647446,7.28821663 984.636023,7.44734091 990.633021,7.68654198 L995.440855,7.87604329 L1000.24845,8.07183108 L1019.47486,8.87945592 L1029.08455,9.27107875 C1035.06169,9.5061599 1041.01868,9.7523439 1047.00711,9.91907958 C1053.3045,10.0906859 1059.56342,10.1893555 1065.84418,10.1893911 C1071.84574,10.1926388 1077.86014,10.0476215 1083.81583,9.84457589 C1088.35825,9.69031177 1092.8964,9.52752071 1097.43312,9.36188733 L1104.2375,9.11201612 L1104.30726,9.11311594 C1103.78849,9.13158574 1103.2698,9.14624984 1102.75096,9.16852534 C1117.30618,8.66325939 1131.86968,8.24568163 1146.48878,8.0459714 C1153.26978,7.95491472 1160.05085,7.86005234 1166.83193,7.76518997 L1171.9776,7.69118019 L1177.96576,7.61155854 L1178.80814,7.59727377 L1182.16957,7.52731809 C1183.4861,7.49858347 1184.79369,7.41641194 1186.1012,7.33804612 C1186.68802,7.30618306 1187.26233,7.26133175 1187.83231,7.20971201 L1188.68504,7.12798358 L1190.39552,6.95272834 C1190.60355,6.9312574 1190.80576,6.90321249 1191.00121,6.8691055 L1191.00121,20 L-3.00155052,20 L-3.00155052,4.76651557 C0.628597787,4.36085289 4.36358001,4.12259142 8.10616962,3.92978246 L9.71031889,3.84957732 L18.8777045,3.41486047 C21.9743498,3.2760712 25.070101,3.15130563 28.1688517,3.03253556 L32.5815542,2.86506377 L32.3509241,2.86951754 C38.7156875,2.65007958 45.108732,2.51483835 51.5386266,2.53625923 C55.0377277,2.54573896 58.5766209,2.55965286 62.0839231,2.66062648 C65.6409839,2.76619139 69.1575171,2.90537911 72.6934682,3.07152097 C79.038115,3.37711232 85.3902275,3.81225455 91.7443258,4.14464292 C97.1822162,4.42615053 102.604922,4.73538751 108.010914,5.15144139 L110.71251,5.36873588 L113.507606,5.62348535 C116.401289,5.8871648 119.293674,6.14547039 122.198182,6.35685721 C124.308786,6.50814271 126.459623,6.64102818 128.582694,6.66307704 C131.044477,6.69807927 133.48721,6.68709889 135.940203,6.66105283 C145.742356,6.54910007 155.489345,6.19644558 165.189076,5.70980605 C174.309871,5.25972211 183.382967,4.69848732 192.456062,4.13725252 C201.579211,3.56538622 210.672387,2.99685427 219.851362,2.6314384 C225.188038,2.47573705 230.523905,2.36189839 235.867826,2.34716501 C241.99939,2.32962109 248.129777,2.37296835 254.270277,2.40886133 C261.077231,2.44873466 267.879069,2.41643011 274.680437,2.36032251 L279.781447,2.31453459 L289.984681,2.21432089 L299.721511,2.11323476 Z" id="Shape" fill="#1C1C1C"></path>
    </g>
</svg>