<?xml version="1.0" encoding="UTF-8"?>
<svg width="118px" height="8px" viewBox="0 0 118 8" version="1.1" xmlns="http://www.w3.org/2000/svg" xmlns:xlink="http://www.w3.org/1999/xlink">
    <title>Group</title>
    <g id="Page-1" stroke="none" stroke-width="1" fill="none" fill-rule="evenodd">
        <g id="26132" transform="translate(-17.000000, -247.000000)" fill="#000000">
            <g id="Group" transform="translate(17.479027, 247.028436)">
                <path d="M5.38297287,3.70356401 C5.34897287,3.70756401 5.31397287,3.71256401 5.28097287,3.71756401 C5.31397287,3.71256401 5.34897287,3.70756401 5.38297287,3.70356401 Z M23.9709729,3.82656401 C23.9199729,3.83256401 23.8689729,3.83956401 23.8179729,3.84556401 C23.8689729,3.83856401 23.9199729,3.83256401 23.9709729,3.82656401 Z M76.1379729,0.00156401029 C75.6119729,-0.00943598971 75.0829729,0.0395640103 74.5609729,0.0865640103 C73.9609729,0.14356401 73.3609729,0.20356401 72.7649729,0.28756401 C71.6809729,0.43856401 70.6119729,0.68356401 69.5549729,0.99156401 C68.9719729,1.16156401 68.4019729,1.38456401 67.8299729,1.59256401 C67.2139729,1.81756401 66.5939729,2.02556401 65.9609729,2.18256401 C64.7069729,2.49356401 63.4359729,2.69956401 62.1609729,2.88156401 C61.6849729,2.94256401 61.2069729,3.00056401 60.7269729,3.02856401 C60.1489729,3.06356401 59.5719729,3.08256401 58.9929729,3.08956401 C58.4839729,3.09456401 57.9719729,3.07756401 57.4649729,3.03256401 C57.1539729,3.00556401 56.8459729,2.97356401 56.5369729,2.93056401 C56.3109729,2.90056401 56.0869729,2.85956401 55.8619729,2.81856401 C55.4489729,2.72356401 55.0369729,2.62256401 54.6239729,2.51656401 C53.9459729,2.34056401 53.2679729,2.12256401 52.5749729,2.08756401 C51.6909729,2.04256401 50.8149729,2.12256401 49.9369729,2.20356401 C49.1129729,2.28156401 48.2889729,2.33256401 47.4609729,2.30056401 C46.6349729,2.26856401 45.8159729,2.13856401 44.9979729,1.98656401 C44.0489729,1.78556401 43.1059729,1.54256401 42.1569729,1.33856401 C41.6509729,1.22956401 41.1459729,1.19056401 40.6349729,1.17756401 C40.1659729,1.16556401 39.6959729,1.21656401 39.2299729,1.26056401 C37.3199729,1.44356401 35.4369729,1.86156401 33.5379729,2.13156401 C33.0669729,2.18656401 32.5939729,2.24556401 32.1199729,2.26456401 C31.5839729,2.28656401 31.0489729,2.27556401 30.5119729,2.23056401 C29.9709729,2.18556401 29.4319729,2.13056401 28.8909729,2.08556401 C28.3479729,2.03956401 27.8049729,2.03256401 27.2629729,2.05356401 C26.1809729,2.09456401 25.0999729,2.20556401 24.0249729,2.33956401 C23.4599729,2.41056401 22.8939729,2.48656401 22.3319729,2.59256401 C21.7959729,2.69356401 21.2619729,2.80356401 20.7259729,2.91456401 C20.5239729,2.95556401 20.3209729,2.98856401 20.1169729,3.01856401 C19.5919729,3.06356401 19.0659729,3.07556401 18.5389729,3.00956401 C17.9939729,2.94256401 17.4499729,2.86556401 16.9049729,2.80856401 C16.3579729,2.75256401 15.8109729,2.74556401 15.2629729,2.73556401 C14.6949729,2.72756401 14.1259729,2.73156401 13.5589729,2.73156401 C12.4519729,2.73056401 11.3489729,2.70456401 10.2429729,2.60656401 C9.17497287,2.51256401 8.11097287,2.31156401 7.04297287,2.20056401 C6.43297287,2.13756401 5.82397287,2.15756401 5.21797287,2.20956401 C4.88297287,2.23856401 4.55097287,2.30956401 4.22097287,2.37756401 C3.93797287,2.43656401 3.64397287,2.52756401 3.37497287,2.64356401 C3.06697287,2.77756401 2.75797287,2.91156401 2.46497287,3.08856401 C2.17797287,3.26256401 1.90997287,3.45656401 1.64497287,3.67356401 C1.36597287,3.89856401 1.11397287,4.17756401 0.872972872,4.45556401 C0.762972872,4.58256401 0.651972872,4.70856401 0.540972872,4.83556401 C0.438972872,4.95056401 0.326972872,5.05056401 0.218972872,5.15756401 C0.177972872,5.19356401 0.135972872,5.23056401 0.0949728725,5.26856401 C0.0119728725,5.34156401 -0.0310271275,5.46256401 0.0259728725,5.58356401 C0.0809728725,5.70056401 0.193972872,5.72856401 0.285972872,5.67456401 C0.454972872,5.57756401 0.627972872,5.49156401 0.800972872,5.40356401 C1.11597287,5.27056401 1.43097287,5.13956401 1.74197287,4.99756401 C2.08097287,4.84256401 2.41497287,4.66556401 2.74897287,4.49756401 C3.16597287,4.30356401 3.58397287,4.12656401 4.01797287,3.98756401 C4.41597287,3.85856401 4.82197287,3.78556401 5.22997287,3.72556401 C5.77397287,3.68056401 6.31197287,3.66856401 6.85897287,3.70556401 C7.40697287,3.74256401 7.95397287,3.82456401 8.49997287,3.90456401 C9.60197287,4.06356401 10.7019729,4.18956401 11.8099729,4.23656401 C12.9099729,4.28356401 14.0099729,4.26056401 15.1099729,4.26556401 C15.6699729,4.26956401 16.2279729,4.28756401 16.7879729,4.32656401 C17.2959729,4.36156401 17.8009729,4.44656401 18.3059729,4.51656401 C18.7979729,4.58356401 19.2839729,4.62056401 19.7769729,4.61556401 C20.0479729,4.61356401 20.3189729,4.56456401 20.5869729,4.52556401 C20.7939729,4.49556401 21.0009729,4.44856401 21.2049729,4.40056401 C21.6629729,4.29056401 22.1209729,4.17856401 22.5789729,4.07656401 C23.0429729,3.97456401 23.5079729,3.89456401 23.9769729,3.82556401 C25.0249729,3.69456401 26.0769729,3.60656401 27.1319729,3.54556401 C28.1779729,3.48456401 29.2279729,3.58056401 30.2709729,3.72356401 C30.8039729,3.79756401 31.3339729,3.89356401 31.8649729,3.96756401 C32.3879729,4.03956401 32.9079729,4.07556401 33.4339729,4.05756401 C34.0149729,4.03856401 34.5929729,3.95656401 35.1669729,3.87156401 C35.6839729,3.79356401 36.1979729,3.70856401 36.7129729,3.62256401 C37.2749729,3.53056401 37.8389729,3.44356401 38.4029729,3.36256401 C38.9809729,3.28956401 39.5589729,3.22556401 40.1389729,3.18656401 C40.4319729,3.16556401 40.7269729,3.17356401 41.0189729,3.17856401 C41.2949729,3.18356401 41.5679729,3.22456401 41.8419729,3.26556401 C42.7099729,3.45656401 43.5729729,3.68456401 44.4409729,3.87156401 C45.4079729,4.08056401 46.3919729,4.25856401 47.3709729,4.29856401 C48.2589729,4.33356401 49.1419729,4.28056401 50.0249729,4.19656401 C51.0369729,4.10156401 52.0619729,3.98556401 53.0789729,4.13656401 C53.6949729,4.26956401 54.3049729,4.45856401 54.9139729,4.63356401 C55.4899729,4.79856401 56.0659729,4.95656401 56.6469729,5.09056401 C57.7879729,5.35256401 58.9459729,5.42056401 60.0999729,5.43256401 C61.2789729,5.44456401 62.4459729,5.29456401 63.6119729,5.13456401 C64.6359729,4.99656401 65.6499729,4.80656401 66.6579729,4.56656401 C67.3719729,4.39556401 68.0699729,4.14356401 68.7629729,3.88356401 C69.4769729,3.61556401 70.1849729,3.32656401 70.8939729,3.03756401 C71.5679729,2.76256401 72.2549729,2.52056401 72.9369729,2.27256401 C73.2849729,2.14656401 73.6339729,2.03556401 73.9869729,1.93356401 C74.3549729,1.82656401 74.7319729,1.76756401 75.1079729,1.70956401 C75.6649729,1.64456401 76.2189729,1.61056401 76.7809729,1.62856401 C77.3519729,1.64656401 77.9219729,1.73156401 78.4889729,1.83556401 C79.5869729,2.06056401 80.6809729,2.31856401 81.7779729,2.55456401 C82.8289729,2.77956401 83.8829729,2.97856401 84.9369729,3.17956401 C86.0049729,3.38356401 87.0759729,3.52956401 88.1499729,3.66956401 C88.6809729,3.74056401 89.2099729,3.84656401 89.7379729,3.93556401 C90.2839729,4.02656401 90.8279729,4.11856401 91.3719729,4.22156401 C91.4589729,4.23656401 91.5449729,4.25356401 91.6309729,4.26956401 C92.1349729,4.37156401 92.6379729,4.48056401 93.1399729,4.59756401 C93.7339729,4.73356401 94.3249729,4.87956401 94.9249729,4.98556401 C95.9779729,5.17356401 97.0499729,5.25256401 98.1099729,5.26956401 C98.6129729,5.27856401 99.1159729,5.25856401 99.6159729,5.21556401 C100.168973,5.16856401 100.721973,5.12256401 101.270973,5.04956401 C101.850973,4.97356401 102.423973,4.88456401 102.994973,4.74656401 C103.492973,4.62756401 103.981973,4.46656401 104.482973,4.36256401 C104.709973,4.31456401 104.936973,4.26556401 105.163973,4.21756401 C105.268973,4.19556401 105.341973,4.06256401 105.341973,3.93956401 C105.341973,3.77356401 105.230973,3.64756401 105.099973,3.63756401 C104.394973,3.58156401 103.692973,3.60656401 102.988973,3.65856401 C102.385973,3.70356401 101.786973,3.83256401 101.186973,3.92056401 C100.505973,4.00156401 99.8219729,4.08356401 99.1369729,4.09656401 C98.7639729,4.10456401 98.3909729,4.10156401 98.0179729,4.07356401 C97.7079729,4.04856401 97.4009729,3.99856401 97.0949729,3.94256401 C96.5759729,3.81556401 96.0659729,3.65756401 95.5539729,3.49456401 C95.0229729,3.32556401 94.4869729,3.17456401 93.9519729,3.04056401 C92.8469729,2.76456401 91.7389729,2.53156401 90.6259729,2.32456401 C90.0769729,2.22256401 89.5249729,2.14156401 88.9759729,2.04956401 C88.4619729,1.96556401 87.9489729,1.89856401 87.4339729,1.84756401 C86.3899729,1.74456401 85.3409729,1.65356401 84.3019729,1.47856401 C83.7989729,1.39356401 83.2969729,1.30056401 82.7949729,1.20356401 C81.6669729,0.97556401 80.5439729,0.71256401 79.4199729,0.45656401 C78.8229729,0.31956401 78.2249729,0.19856401 77.6239729,0.10956401 C77.1959729,0.0455640103 76.7669729,0.0195640103 76.3379729,0.00756401029 C76.2699729,0.00556401029 76.2039729,0.00356401029 76.1379729,0.00156401029 L76.1379729,0.00156401029 Z" id="Fill-30"></path>
                <path d="M110.512973,4.14356401 C110.489973,4.23956401 110.537973,4.32856401 110.610973,4.36056401 C110.940973,4.50856401 111.266973,4.67056401 111.587973,4.84556401 C111.579973,4.84056401 111.572973,4.83656401 111.564973,4.83256401 C112.241973,5.20256401 112.924973,5.56056401 113.605973,5.91356401 C113.917973,6.07356401 114.228973,6.23556401 114.537973,6.40256401 C114.677973,6.47656401 114.816973,6.55356401 114.962973,6.60756401 C115.076973,6.64956401 115.181973,6.68556401 115.301973,6.69956401 C115.355973,6.70656401 115.409973,6.71156401 115.464973,6.71856401 C115.517973,6.72556401 115.511973,6.71856401 115.604973,6.70556401 C115.665973,6.69556401 115.727973,6.68556401 115.788973,6.67256401 C115.915973,6.64956401 116.023973,6.49756401 116.057973,6.35256401 C116.103973,6.15056401 116.028973,5.92756401 115.879973,5.81656401 C115.819973,5.77156401 115.760973,5.71756401 115.695973,5.68156401 C115.645973,5.65256401 115.597973,5.62456401 115.547973,5.59656401 C115.491973,5.56556401 115.435973,5.52856401 115.376973,5.50556401 C115.316973,5.48356401 115.259973,5.46056401 115.199973,5.43756401 C115.046973,5.37856401 114.886973,5.34156401 114.730973,5.29356401 C114.400973,5.19556401 114.074973,5.08056401 113.748973,4.96156401 C113.413973,4.84056401 113.079973,4.70856401 112.741973,4.60356401 C112.403973,4.49856401 112.065973,4.41356401 111.725973,4.32856401 C111.376973,4.24256401 111.030973,4.14656401 110.686973,4.02856401 C110.674973,4.02456401 110.661973,4.02256401 110.648973,4.02156401 C110.587973,4.01956401 110.528973,4.06756401 110.512973,4.14356401 L110.512973,4.14356401 Z" id="Fill-31"></path>
            </g>
        </g>
    </g>
</svg>