<?xml version="1.0" encoding="UTF-8"?>
<svg width="122px" height="6px" viewBox="0 0 122 6" version="1.1" xmlns="http://www.w3.org/2000/svg" xmlns:xlink="http://www.w3.org/1999/xlink">
    <title>Fill 35</title>
    <g id="Page-1" stroke="none" stroke-width="1" fill="none" fill-rule="evenodd">
        <g id="26132" transform="translate(-151.000000, -95.000000)" fill="#000000">
            <path d="M270.773,95.301 C270.7,95.302 270.628,95.302 270.555,95.302 C270.439,95.303 270.323,95.313 270.207,95.321 C269.825,95.344 269.443,95.377 269.061,95.407 C268.243,95.472 267.422,95.531 266.604,95.602 C264.859,95.75 263.123,95.99 261.386,96.232 C260.832,96.306 260.275,96.382 259.717,96.42 C259.087,96.461 258.458,96.484 257.827,96.481 C257.207,96.479 256.586,96.434 255.966,96.399 C255.342,96.363 254.718,96.323 254.094,96.28 C252.831,96.193 251.566,96.083 250.301,96.068 C249.736,96.061 249.167,96.106 248.605,96.157 C247.958,96.218 247.311,96.288 246.664,96.354 C246.05,96.415 245.432,96.445 244.816,96.468 C244.2,96.491 243.583,96.517 242.966,96.543 C241.693,96.596 240.421,96.679 239.151,96.764 C237.933,96.847 236.714,96.959 235.492,96.947 C234.295,96.937 233.1,96.792 231.905,96.691 C230.626,96.584 229.347,96.473 228.067,96.431 C227.446,96.411 226.825,96.414 226.205,96.41 C225.57,96.406 224.937,96.413 224.304,96.42 C223.024,96.438 221.745,96.465 220.469,96.561 C219.869,96.607 219.268,96.661 218.669,96.725 C218.081,96.788 217.496,96.898 216.912,97.002 C216.163,97.136 215.413,97.263 214.667,97.417 C213.935,97.568 213.208,97.735 212.47,97.852 C210.95,98.094 209.431,98.365 207.908,98.573 C207.356,98.642 206.804,98.701 206.25,98.742 C205.657,98.785 205.059,98.781 204.464,98.8 C203.851,98.818 203.238,98.804 202.625,98.807 C202.333,98.808 202.041,98.83 201.749,98.843 C201.407,98.858 201.066,98.87 200.723,98.884 C200.143,98.906 199.561,98.929 198.979,98.905 C198.359,98.881 197.742,98.833 197.123,98.773 C195.917,98.652 194.713,98.496 193.509,98.345 C192.884,98.267 192.259,98.17 191.635,98.084 C191.041,98 190.444,97.931 189.847,97.854 C188.605,97.694 187.366,97.483 186.123,97.342 C184.827,97.194 183.529,97.287 182.237,97.367 C181.063,97.44 179.89,97.539 178.715,97.595 C177.503,97.651 176.286,97.65 175.078,97.776 C174.454,97.84 173.83,97.92 173.211,98.036 C172.623,98.147 172.04,98.28 171.455,98.41 C170.302,98.671 169.147,98.921 167.994,99.184 C167.39,99.323 166.784,99.447 166.175,99.562 C165.633,99.664 165.093,99.782 164.548,99.869 C163.544,99.971 162.537,99.887 161.53,99.803 C160.442,99.714 159.357,99.567 158.268,99.564 C157.693,99.563 157.114,99.581 156.542,99.639 C155.988,99.694 155.438,99.775 154.888,99.862 C154.348,99.946 153.815,100.058 153.283,100.188 C153.015,100.254 152.75,100.324 152.486,100.4 C152.339,100.442 152.194,100.486 152.047,100.528 C151.951,100.557 151.799,100.579 151.743,100.699 C151.696,100.801 151.722,100.937 151.807,101 C151.855,101.035 151.907,101.04 151.954,101.022 C152.538,100.816 153.152,100.729 153.754,100.628 C154.375,100.521 154.995,100.433 155.617,100.347 C155.601,100.349 155.585,100.351 155.57,100.352 C156.208,100.268 156.849,100.206 157.494,100.185 C157.845,100.173 158.2,100.162 158.552,100.174 C158.909,100.187 159.262,100.209 159.617,100.238 C160.254,100.292 160.892,100.38 161.53,100.441 C162.167,100.501 162.802,100.571 163.435,100.684 C163.432,100.683 163.429,100.682 163.425,100.682 C163.813,100.758 164.2,100.838 164.589,100.896 C164.801,100.927 165.017,100.953 165.23,100.95 C165.477,100.949 165.722,100.936 165.968,100.919 C166.951,100.849 167.928,100.716 168.9,100.548 C169.814,100.392 170.723,100.207 171.632,100.022 C172.546,99.834 173.457,99.647 174.377,99.513 C174.912,99.45 175.447,99.398 175.983,99.372 C176.598,99.342 177.213,99.328 177.829,99.312 C179.024,99.281 180.217,99.192 181.411,99.113 C182.712,99.025 184.017,98.918 185.324,98.964 C185.92,98.985 186.518,99.071 187.112,99.156 C187.737,99.244 188.363,99.339 188.987,99.43 C189.607,99.518 190.226,99.592 190.846,99.67 C191.487,99.751 192.126,99.842 192.766,99.932 C193.955,100.098 195.145,100.214 196.337,100.305 C196.919,100.35 197.501,100.385 198.085,100.38 C198.702,100.376 199.318,100.359 199.934,100.322 C200.571,100.283 201.207,100.245 201.843,100.209 C202.463,100.175 203.083,100.115 203.701,100.051 C204.877,99.929 206.058,99.848 207.233,99.695 C208.432,99.536 209.625,99.317 210.82,99.102 C211.399,98.998 211.978,98.899 212.558,98.799 C213.115,98.704 213.667,98.581 214.219,98.453 C214.753,98.329 215.289,98.208 215.825,98.097 C216.443,97.971 217.063,97.866 217.684,97.76 C217.877,97.727 218.072,97.699 218.266,97.672 C218.266,97.672 218.265,97.672 218.264,97.673 C219.473,97.529 220.689,97.464 221.907,97.444 C223.183,97.422 224.461,97.425 225.74,97.452 C228.272,97.505 230.796,97.848 233.318,98.18 C234.484,98.334 235.656,98.447 236.827,98.395 C238.07,98.34 239.311,98.251 240.553,98.183 C241.834,98.113 243.117,98.065 244.4,98.018 C245.001,97.997 245.605,97.98 246.205,97.932 C246.861,97.88 247.515,97.813 248.17,97.748 C248.745,97.691 249.319,97.638 249.895,97.616 C250.498,97.594 251.099,97.611 251.701,97.649 C252.988,97.726 254.275,97.826 255.561,97.906 C256.161,97.943 256.759,97.983 257.36,98.002 C257.992,98.021 258.62,98.021 259.25,97.995 C259.852,97.971 260.455,97.908 261.052,97.83 C261.735,97.741 262.417,97.647 263.099,97.553 C263.101,97.553 263.104,97.553 263.106,97.553 C263.054,97.56 263.002,97.566 262.95,97.574 C264.409,97.381 265.869,97.211 267.335,97.098 C268.015,97.046 268.695,96.993 269.375,96.94 C269.719,96.912 270.063,96.886 270.407,96.86 C270.576,96.848 270.745,96.83 270.913,96.814 C271.045,96.801 271.176,96.774 271.307,96.748 C271.454,96.721 271.593,96.673 271.737,96.629 C271.942,96.565 272.089,96.336 272.089,96.074 C272.089,95.812 271.942,95.577 271.737,95.499 C271.635,95.459 271.534,95.421 271.431,95.384 C271.369,95.37 271.305,95.358 271.242,95.35 C271.132,95.334 271.023,95.316 270.913,95.3 C270.866,95.3 270.819,95.3 270.773,95.301 L270.773,95.301 Z" id="Fill-35"></path>
        </g>
    </g>
</svg>